<?xml version="1.0" encoding="utf-8"?>
<!-- Generator: Adobe Illustrator 24.0.1, SVG Export Plug-In . SVG Version: 6.00 Build 0)  -->
<svg version="1.1" id="Camada_1" xmlns="http://www.w3.org/2000/svg" xmlns:xlink="http://www.w3.org/1999/xlink" x="0px" y="0px"
	 viewBox="0 0 500 500" style="enable-background:new 0 0 500 500;" xml:space="preserve">
<style type="text/css">
	.st0{fill:#FFFFFF;}
</style>
<g>
	<path class="st0" d="M-419.73,491.17c0.92,0.65,1.8,1.12,2.49,1.79c2.66,2.57,5.27,5.21,7.89,7.83c0.88,0.88,1.8,1.73,2.64,2.65
		c2.29,2.53,2.09,6.55-0.42,8.87c-0.79,0.73-1.6,1.45-2.46,2.22c2.06,2.29,4.07,4.51,6.14,6.82c-0.51,0.46-0.98,0.88-1.49,1.34
		c0.76,0.85,1.45,1.61,2.19,2.43c0.47-0.42,0.91-0.82,1.41-1.27c0.71,0.79,1.38,1.53,2.08,2.31c-0.32,0.32-0.63,0.63-0.99,0.98
		c0.36,0.4,0.69,0.76,1.07,1.19c0.35-0.28,0.72-0.57,1.12-0.88c0.59,0.66,1.16,1.29,1.71,1.89c-0.22,0.71-1.41,0.87-1.17,1.75
		c0.1,0.07,0.21,0.13,0.31,0.2c0.47-0.42,0.93-0.84,1.44-1.3c0.65,0.72,1.24,1.38,1.89,2.1c-0.44,0.43-0.88,0.87-1.37,1.35
		c0.33,0.37,0.64,0.71,0.99,1.1c0.47-0.42,0.91-0.82,1.41-1.27c0.35,0.39,0.66,0.73,1.03,1.14c-0.44,0.4-0.91,0.82-1.42,1.28
		c0.76,0.84,1.45,1.61,2.19,2.43c0.48-0.43,0.92-0.83,1.57-1.41c0.79,1.09,1.87,2.03,2.19,3.17c0.32,1.15,0.44,2.56-0.11,4.06
		c-7.27-8.06-14.34-15.91-21.45-23.8c-0.42,0.38-0.77,0.69-1.18,1.06c7.08,7.86,14.16,15.72,21.39,23.74
		c-0.41,0.1-0.66,0.22-0.89,0.2c-0.63-0.06-1.27-0.3-1.89-0.27c-1.39,0.06-2.18-0.75-3.02-1.69c-6.7-7.48-13.44-14.94-20.17-22.4
		c-0.26-0.28-0.51-0.57-0.86-0.96c-0.73,0.66-1.44,1.3-2.14,1.93c-2.93,2.64-6.97,2.48-9.49-0.52c-2.48-2.96-4.83-6.03-7.22-9.07
		c-0.9-1.15-1.88-2.27-2.6-3.53c-1.43-2.5-0.83-5.68,1.28-7.59c3.16-2.86,6.32-5.7,9.49-8.54c0.35-0.31,0.76-0.56,1.28-0.94
		c-0.17,1.35-0.36,2.26-1.66,2.95c-3.56,1.89-6.43,4.59-8.19,8.29c-0.36,0.76-0.61,1.62-0.71,2.46c-0.23,2.07,0.99,3.36,3.07,3.34
		c2.19-0.02,4.07-0.99,5.84-2.14c2.72-1.76,4.94-4.03,6.51-6.88c0.66-1.2,1.19-2.49,1-3.92c-0.06-0.43-0.14-0.97-0.42-1.23
		C-420.47,493.46-419.88,492.43-419.73,491.17z"/>
	<path class="st0" d="M-437.18,500.27c-2.77,3.26-2.74,7.76-0.09,10.85c1.18,1.37,2.3,2.8,3.61,4.41c-3.28-0.2-6.11,0.42-8.56,2.3
		c-2.44,1.87-4.04,4.28-4.55,7.32c7.71,0.4,15.39,0.8,23.16,1.21c-0.02-0.37-0.04-0.79-0.05-1.04c1.72-0.23,3.4-0.44,5.2-0.68
		c0.01,0.65,0.01,1.52,0.06,2.38c0.15,3.06-0.02,6.08-1.55,8.83c-2.74,4.94-6.93,7.61-12.62,7.62c-2.68,0-5.4-0.03-8.03-0.49
		c-7.95-1.4-12.66-8.33-11.56-16.45c0.75-5.54,1.3-11.1,1.93-16.66c0.24-2.1,0.53-4.16,1.86-5.93c1.84-2.45,4.27-3.76,7.32-3.85
		C-439.81,500.05-438.57,500.2-437.18,500.27z M-423.8,529.39c-7.75-0.42-15.44-0.83-23.13-1.24c0.57,6.15,5.73,10.94,11.73,10.81
		C-428.95,538.84-424.46,534.29-423.8,529.39z"/>
	<path class="st0" d="M-420,494.39c0.14,0.6,0.41,1.21,0.4,1.81c-0.03,1.72-0.89,3.15-1.84,4.53c-2.16,3.12-4.98,5.42-8.52,6.78
		c-0.73,0.28-1.54,0.44-2.33,0.47c-1.85,0.07-2.84-1.13-2.53-2.95c0.37-2.15,1.48-3.99,2.95-5.47c1.64-1.66,3.61-3,5.44-4.47
		c0.14-0.11,0.35-0.13,0.68-0.24c-0.72,1.26-1.08,2.54-2.64,2.99c-1.65,0.48-2.4,2.1-1.97,3.67c5.98-3.08,9.11-11.47,5.16-18.5
		c-4.15-7.38-12.97-9.1-19.51-4.97c-7.46,4.72-8.83,15.62-1.84,21.98c-0.66,0.5-1.31,0.98-1.95,1.46
		c-3.65-2.92-6.49-9.71-4.49-16.43c2.02-6.8,8.45-11.74,15.3-11.74c7.74,0,13.96,4.56,16.13,11.79c1.94,6.47-0.4,14.38-7.17,18.58
		c1.61,1.06,3.68,0.36,4.53-1.49c0.39-0.85,0.88-1.66,1.34-2.48c0.48-0.86,1.04-1.67,1.47-2.56c0.43-0.87,0.73-1.81,1.09-2.71
		C-420.2,494.43-420.1,494.41-420,494.39z"/>
	<path class="st0" d="M-438.91,524.39c0.07-1.3,0.15-2.64,0.23-3.98c0.01-0.19-0.03-0.45,0.07-0.56c0.95-0.98,1.14-2.6,2.77-3.02
		c1.69-0.43,3.49,0.42,4.08,2.11c0.68,1.93,0.79,3.68,0.38,5.85C-433.86,524.67-436.34,524.53-438.91,524.39z M-437.06,519.73
		c1.5,0.09,2.93,0.17,4.36,0.26c0.22-1.11-0.87-2.12-1.92-2.23C-435.92,517.63-436.8,518.32-437.06,519.73z"/>
	<path class="st0" d="M-433.4,532.91c0.74-2.49,1.98-3.43,3.9-3.17c1.66,0.23,2.73,1.52,2.73,3.39c-0.31,0-0.62-0.01-0.91-0.01
		c-0.32-2.01-1.82-2.94-3.35-2.12c-1.01,0.54-1.16,0.98-0.71,2.04c0.05,0.11,0.01,0.25,0.01,0.38c0,0.13-0.01,0.26-0.01,0.38
		c-0.05,1.24-0.11,2.48-0.16,3.7c-2.57-0.13-5.04-0.26-7.46-0.39c0.09-1.48,0.17-3.01,0.27-4.61
		C-437.33,532.63-435.37,532.77-433.4,532.91z"/>
</g>
<g>
	<path class="st0" d="M-396.34,519.64c0.92,0.65,1.8,1.12,2.49,1.79c2.66,2.57,5.27,5.21,7.89,7.83c0.88,0.88,1.8,1.73,2.64,2.65
		c2.29,2.53,2.09,6.55-0.42,8.87c-0.79,0.73-1.6,1.45-2.46,2.22c2.06,2.29,4.07,4.51,6.14,6.82c-0.51,0.46-0.98,0.88-1.49,1.34
		c0.76,0.85,1.45,1.61,2.19,2.43c0.47-0.42,0.91-0.82,1.41-1.27c0.71,0.79,1.38,1.53,2.08,2.31c-0.32,0.32-0.63,0.63-0.99,0.98
		c0.36,0.4,0.69,0.76,1.07,1.19c0.35-0.28,0.72-0.57,1.12-0.88c0.59,0.66,1.16,1.29,1.71,1.89c-0.22,0.71-1.41,0.87-1.17,1.75
		c0.1,0.07,0.21,0.13,0.31,0.2c0.47-0.42,0.93-0.84,1.44-1.3c0.65,0.72,1.24,1.38,1.89,2.1c-0.44,0.43-0.88,0.87-1.37,1.35
		c0.33,0.37,0.64,0.71,0.99,1.1c0.47-0.42,0.91-0.82,1.41-1.27c0.35,0.39,0.66,0.73,1.03,1.14c-0.44,0.4-0.91,0.82-1.42,1.28
		c0.76,0.84,1.45,1.61,2.19,2.43c0.48-0.43,0.92-0.83,1.57-1.41c0.79,1.09,1.87,2.03,2.19,3.17c0.32,1.15,0.44,2.56-0.11,4.06
		c-7.27-8.06-14.34-15.91-21.45-23.8c-0.42,0.38-0.77,0.69-1.18,1.06c7.08,7.86,14.16,15.72,21.39,23.74
		c-0.41,0.1-0.66,0.22-0.89,0.2c-0.63-0.06-1.27-0.3-1.89-0.27c-1.39,0.06-2.18-0.75-3.02-1.69c-6.7-7.48-13.44-14.94-20.17-22.4
		c-0.26-0.28-0.51-0.57-0.86-0.96c-0.73,0.66-1.44,1.3-2.14,1.93c-2.93,2.64-6.97,2.48-9.49-0.52c-2.48-2.96-4.83-6.03-7.22-9.07
		c-0.9-1.15-1.88-2.27-2.6-3.53c-1.43-2.5-0.83-5.68,1.28-7.59c3.16-2.86,6.32-5.7,9.49-8.54c0.35-0.31,0.76-0.56,1.28-0.94
		c-0.17,1.35-0.36,2.26-1.66,2.95c-3.56,1.89-6.43,4.59-8.19,8.29c-0.36,0.76-0.61,1.62-0.71,2.46c-0.23,2.07,0.99,3.36,3.07,3.34
		c2.19-0.02,4.07-0.99,5.84-2.14c2.72-1.76,4.94-4.03,6.51-6.88c0.66-1.2,1.19-2.49,1-3.92c-0.06-0.43-0.14-0.97-0.42-1.23
		C-397.08,521.93-396.49,520.9-396.34,519.64z"/>
	<path class="st0" d="M-413.79,528.74c-2.77,3.26-2.74,7.76-0.09,10.85c1.18,1.37,2.3,2.8,3.61,4.41c-3.28-0.2-6.11,0.42-8.56,2.3
		c-2.44,1.87-4.04,4.28-4.55,7.32c7.71,0.4,15.39,0.8,23.16,1.21c-0.02-0.37-0.04-0.8-0.05-1.04c1.72-0.23,3.4-0.44,5.2-0.68
		c0.01,0.65,0.01,1.52,0.06,2.38c0.15,3.06-0.02,6.08-1.55,8.83c-2.74,4.94-6.93,7.61-12.62,7.62c-2.68,0-5.4-0.03-8.03-0.49
		c-7.95-1.4-12.66-8.33-11.56-16.45c0.75-5.54,1.3-11.1,1.93-16.66c0.24-2.1,0.53-4.16,1.86-5.93c1.84-2.45,4.27-3.76,7.32-3.85
		C-416.42,528.53-415.18,528.67-413.79,528.74z M-400.41,557.87c-7.75-0.42-15.44-0.83-23.13-1.24c0.57,6.15,5.73,10.94,11.73,10.81
		C-405.56,567.32-401.07,562.76-400.41,557.87z"/>
	<path class="st0" d="M-396.61,522.87c0.14,0.6,0.41,1.21,0.4,1.81c-0.03,1.72-0.89,3.15-1.84,4.53c-2.16,3.12-4.98,5.42-8.52,6.78
		c-0.73,0.28-1.54,0.44-2.33,0.47c-1.85,0.07-2.84-1.13-2.53-2.95c0.37-2.15,1.48-3.99,2.95-5.47c1.64-1.66,3.61-3,5.44-4.47
		c0.14-0.11,0.35-0.13,0.68-0.24c-0.72,1.26-1.08,2.54-2.64,2.99c-1.65,0.48-2.4,2.1-1.97,3.67c5.98-3.08,9.11-11.47,5.16-18.5
		c-4.15-7.38-12.97-9.1-19.51-4.97c-7.46,4.72-8.83,15.62-1.84,21.98c-0.66,0.5-1.31,0.98-1.95,1.46
		c-3.65-2.92-6.49-9.71-4.49-16.43c2.02-6.8,8.45-11.74,15.3-11.74c7.74,0,13.96,4.56,16.13,11.79c1.94,6.47-0.4,14.38-7.17,18.58
		c1.61,1.06,3.68,0.36,4.53-1.49c0.39-0.85,0.88-1.66,1.34-2.48c0.48-0.86,1.04-1.67,1.47-2.56c0.43-0.87,0.73-1.81,1.09-2.71
		C-396.81,522.9-396.71,522.88-396.61,522.87z"/>
	<path class="st0" d="M-415.52,552.86c0.07-1.3,0.15-2.64,0.23-3.98c0.01-0.19-0.03-0.45,0.07-0.56c0.95-0.98,1.14-2.6,2.77-3.02
		c1.69-0.43,3.49,0.42,4.08,2.11c0.68,1.93,0.79,3.68,0.38,5.85C-410.47,553.14-412.95,553-415.52,552.86z M-413.67,548.2
		c1.5,0.09,2.93,0.17,4.36,0.26c0.22-1.11-0.87-2.12-1.92-2.23C-412.53,546.1-413.41,546.79-413.67,548.2z"/>
	<path class="st0" d="M-410.02,561.38c0.74-2.49,1.98-3.43,3.9-3.17c1.66,0.23,2.73,1.52,2.73,3.39c-0.31,0-0.62-0.01-0.91-0.01
		c-0.32-2.01-1.82-2.94-3.35-2.12c-1.01,0.54-1.16,0.98-0.71,2.04c0.05,0.11,0.01,0.25,0.01,0.38c0,0.13-0.01,0.26-0.01,0.38
		c-0.05,1.24-0.11,2.48-0.16,3.7c-2.57-0.13-5.04-0.26-7.46-0.39c0.09-1.48,0.17-3.01,0.27-4.61
		C-413.94,561.11-411.98,561.24-410.02,561.38z"/>
</g>
<g>
	<path class="st0" d="M-385.26,541.69c0.92,0.65,1.8,1.12,2.49,1.79c2.66,2.57,5.27,5.21,7.89,7.83c0.88,0.88,1.8,1.73,2.64,2.65
		c2.29,2.53,2.09,6.55-0.42,8.87c-0.79,0.73-1.6,1.45-2.46,2.22c2.06,2.29,4.07,4.51,6.14,6.82c-0.51,0.46-0.98,0.88-1.49,1.34
		c0.76,0.85,1.45,1.61,2.19,2.43c0.47-0.42,0.91-0.82,1.41-1.27c0.71,0.79,1.38,1.53,2.08,2.31c-0.32,0.32-0.63,0.63-0.99,0.98
		c0.36,0.4,0.69,0.76,1.07,1.19c0.35-0.28,0.72-0.57,1.12-0.88c0.59,0.66,1.16,1.29,1.71,1.89c-0.22,0.71-1.41,0.87-1.17,1.75
		c0.1,0.07,0.21,0.13,0.31,0.2c0.47-0.42,0.93-0.84,1.44-1.3c0.65,0.72,1.24,1.38,1.89,2.1c-0.44,0.43-0.88,0.87-1.37,1.35
		c0.33,0.37,0.64,0.71,0.99,1.1c0.47-0.42,0.91-0.82,1.41-1.27c0.35,0.39,0.66,0.73,1.03,1.14c-0.44,0.4-0.91,0.82-1.42,1.28
		c0.76,0.84,1.45,1.61,2.19,2.43c0.48-0.43,0.92-0.83,1.57-1.41c0.79,1.09,1.87,2.03,2.19,3.17c0.32,1.15,0.44,2.56-0.11,4.06
		c-7.27-8.06-14.34-15.91-21.45-23.8c-0.42,0.38-0.77,0.69-1.18,1.06c7.08,7.86,14.16,15.72,21.39,23.74
		c-0.41,0.1-0.66,0.22-0.89,0.2c-0.63-0.06-1.27-0.3-1.89-0.27c-1.39,0.06-2.18-0.75-3.02-1.69c-6.7-7.48-13.44-14.94-20.17-22.4
		c-0.26-0.28-0.51-0.57-0.86-0.96c-0.73,0.66-1.44,1.3-2.14,1.93c-2.93,2.64-6.97,2.48-9.49-0.52c-2.48-2.96-4.83-6.03-7.22-9.07
		c-0.9-1.15-1.88-2.27-2.6-3.53c-1.43-2.5-0.83-5.68,1.28-7.59c3.16-2.86,6.32-5.7,9.49-8.54c0.35-0.31,0.76-0.56,1.28-0.94
		c-0.17,1.35-0.36,2.26-1.66,2.95c-3.56,1.89-6.43,4.59-8.19,8.29c-0.36,0.76-0.61,1.62-0.71,2.46c-0.23,2.07,0.99,3.36,3.07,3.34
		c2.19-0.02,4.07-0.99,5.84-2.14c2.72-1.76,4.94-4.03,6.51-6.88c0.66-1.2,1.19-2.49,1-3.92c-0.06-0.43-0.14-0.97-0.42-1.23
		C-386,543.98-385.42,542.95-385.26,541.69z"/>
	<path class="st0" d="M-402.71,550.79c-2.77,3.26-2.74,7.76-0.09,10.85c1.18,1.37,2.3,2.8,3.61,4.41c-3.28-0.2-6.11,0.42-8.56,2.3
		c-2.44,1.87-4.04,4.28-4.55,7.32c7.71,0.4,15.39,0.8,23.16,1.21c-0.02-0.37-0.04-0.79-0.05-1.04c1.72-0.23,3.4-0.44,5.2-0.68
		c0.01,0.65,0.01,1.52,0.06,2.38c0.15,3.06-0.02,6.08-1.55,8.83c-2.74,4.94-6.93,7.61-12.62,7.62c-2.68,0-5.4-0.03-8.03-0.49
		c-7.95-1.4-12.66-8.33-11.56-16.45c0.75-5.54,1.3-11.1,1.93-16.66c0.24-2.1,0.53-4.16,1.86-5.93c1.84-2.45,4.27-3.76,7.32-3.85
		C-405.34,550.58-404.1,550.72-402.71,550.79z M-389.33,579.92c-7.75-0.42-15.44-0.83-23.13-1.24c0.57,6.15,5.73,10.94,11.73,10.81
		C-394.48,589.37-389.99,584.81-389.33,579.92z"/>
	<path class="st0" d="M-385.54,544.92c0.14,0.6,0.41,1.21,0.4,1.81c-0.03,1.72-0.89,3.15-1.84,4.53c-2.16,3.12-4.98,5.42-8.52,6.78
		c-0.73,0.28-1.54,0.44-2.33,0.47c-1.85,0.07-2.84-1.13-2.53-2.95c0.37-2.15,1.48-3.99,2.95-5.47c1.64-1.66,3.61-3,5.44-4.47
		c0.14-0.11,0.35-0.13,0.68-0.24c-0.72,1.26-1.08,2.54-2.64,2.99c-1.65,0.48-2.4,2.1-1.97,3.67c5.98-3.08,9.11-11.47,5.16-18.5
		c-4.15-7.38-12.97-9.1-19.51-4.97c-7.46,4.72-8.83,15.62-1.84,21.98c-0.66,0.5-1.31,0.98-1.95,1.46
		c-3.65-2.92-6.49-9.71-4.49-16.43c2.02-6.8,8.45-11.74,15.3-11.74c7.74,0,13.96,4.56,16.13,11.78c1.94,6.47-0.4,14.38-7.17,18.58
		c1.61,1.06,3.68,0.36,4.53-1.49c0.39-0.85,0.88-1.66,1.34-2.48c0.48-0.86,1.04-1.67,1.47-2.56c0.43-0.87,0.73-1.81,1.09-2.71
		C-385.74,544.95-385.64,544.93-385.54,544.92z"/>
	<path class="st0" d="M-404.44,574.91c0.07-1.3,0.15-2.64,0.23-3.98c0.01-0.19-0.03-0.45,0.07-0.56c0.95-0.98,1.14-2.6,2.77-3.02
		c1.69-0.43,3.49,0.42,4.08,2.11c0.68,1.93,0.79,3.68,0.38,5.85C-399.4,575.19-401.88,575.05-404.44,574.91z M-402.6,570.25
		c1.5,0.09,2.93,0.17,4.36,0.26c0.22-1.11-0.87-2.12-1.92-2.23C-401.45,568.15-402.33,568.84-402.6,570.25z"/>
	<path class="st0" d="M-398.94,583.43c0.74-2.49,1.98-3.43,3.9-3.17c1.66,0.23,2.73,1.52,2.73,3.39c-0.31,0-0.62-0.01-0.91-0.01
		c-0.32-2.01-1.82-2.94-3.35-2.12c-1.01,0.54-1.16,0.98-0.71,2.04c0.05,0.11,0.01,0.25,0.01,0.38c0,0.13-0.01,0.26-0.01,0.38
		c-0.05,1.24-0.11,2.48-0.16,3.7c-2.57-0.13-5.04-0.26-7.46-0.39c0.09-1.48,0.17-3.01,0.27-4.61
		C-402.86,583.16-400.9,583.29-398.94,583.43z"/>
</g>
<g>
	<path class="st0" d="M274.48,126.64c6.26,4.42,12.26,7.61,16.96,12.15c18.11,17.51,35.8,35.44,53.64,53.22
		c6,5.98,12.25,11.73,17.93,18c15.58,17.21,14.19,44.54-2.88,60.33c-5.39,4.99-10.91,9.85-16.73,15.09
		c14.02,15.56,27.65,30.68,41.75,46.33c-3.49,3.14-6.63,5.98-10.13,9.13c5.18,5.75,9.89,10.98,14.92,16.55
		c3.17-2.86,6.19-5.58,9.59-8.65c4.84,5.37,9.39,10.42,14.13,15.68c-2.2,2.19-4.31,4.29-6.72,6.69c2.42,2.69,4.67,5.19,7.29,8.09
		c2.4-1.9,4.88-3.86,7.59-6c4.02,4.47,7.87,8.74,11.6,12.87c-1.48,4.81-9.59,5.93-7.99,11.87c0.7,0.44,1.41,0.88,2.11,1.33
		c3.17-2.86,6.34-5.71,9.77-8.81c4.42,4.9,8.43,9.35,12.86,14.27c-2.97,2.92-5.99,5.9-9.32,9.19c2.24,2.48,4.33,4.81,6.75,7.49
		c3.17-2.86,6.19-5.58,9.6-8.65c2.38,2.64,4.46,4.95,7,7.77c-3.02,2.72-6.17,5.56-9.64,8.68c5.16,5.73,9.88,10.97,14.9,16.53
		c3.26-2.94,6.28-5.66,10.67-9.61c5.38,7.44,12.7,13.79,14.86,21.58c2.17,7.83,3.01,17.4-0.72,27.62
		c-49.4-54.83-97.5-108.2-145.82-161.82c-2.85,2.57-5.21,4.69-8.01,7.22c48.15,53.43,96.28,106.85,145.41,161.37
		c-2.82,0.68-4.48,1.52-6.05,1.37c-4.31-0.44-8.62-2.03-12.86-1.84c-9.45,0.43-14.82-5.12-20.5-11.46
		c-45.58-50.88-91.38-101.57-137.11-152.32c-1.73-1.92-3.47-3.85-5.85-6.5c-4.99,4.5-9.77,8.81-14.54,13.1
		c-19.95,17.94-47.39,16.86-64.53-3.55c-16.89-20.12-32.84-41.02-49.08-61.67c-6.15-7.82-12.79-15.43-17.7-24
		c-9.7-16.97-5.65-38.6,8.71-51.6c21.46-19.42,42.97-38.78,64.53-58.09c2.38-2.13,5.17-3.8,8.72-6.37
		c-1.14,9.18-2.45,15.39-11.3,20.08c-24.19,12.83-43.71,31.17-55.66,56.38c-2.46,5.19-4.16,11.03-4.8,16.73
		c-1.59,14.04,6.72,22.81,20.85,22.69c14.91-0.13,27.66-6.74,39.68-14.54c18.46-11.97,33.59-27.41,44.25-46.8
		c4.5-8.18,8.06-16.93,6.78-26.64c-0.38-2.92-0.94-6.61-2.87-8.38C269.45,142.22,273.44,135.2,274.48,126.64z"/>
	<path class="st0" d="M155.85,188.51c-18.85,22.17-18.61,52.78-0.59,73.78c8.02,9.35,15.62,19.06,24.52,29.96
		c-22.31-1.35-41.53,2.85-58.19,15.61c-16.61,12.73-27.45,29.08-30.93,49.79c52.42,2.74,104.66,5.46,157.47,8.22
		c-0.12-2.52-0.25-5.41-0.33-7.09c11.72-1.53,23.1-3.02,35.37-4.62c0.1,4.4,0.1,10.3,0.39,16.19c1.02,20.82-0.15,41.33-10.52,60.04
		c-18.64,33.62-47.12,51.76-85.83,51.79c-18.22,0.01-36.74-0.22-54.59-3.36c-54.04-9.49-86.1-56.65-78.58-111.82
		c5.13-37.65,8.87-75.49,13.13-113.25c1.61-14.28,3.61-28.28,12.63-40.31c12.52-16.68,29.05-25.59,49.79-26.17
		C137.97,187.05,146.4,188.03,155.85,188.51z M246.8,386.54c-52.72-2.83-105.01-5.63-157.25-8.43c3.9,41.8,38.97,74.35,79.73,73.53
		C211.79,450.78,242.32,419.84,246.8,386.54z"/>
	<path class="st0" d="M272.62,148.57c0.95,4.1,2.77,8.21,2.69,12.28c-0.22,11.73-6.03,21.44-12.51,30.78
		c-14.7,21.18-33.85,36.84-57.93,46.12c-4.96,1.91-10.49,2.99-15.81,3.19c-12.59,0.48-19.32-7.67-17.19-20.05
		c2.52-14.62,10.09-27.11,20.04-37.2c11.15-11.3,24.53-20.4,37-30.39c0.94-0.75,2.38-0.88,4.6-1.65
		c-4.9,8.58-7.31,17.25-17.95,20.36c-11.22,3.28-16.29,14.28-13.41,24.99c40.67-20.95,61.92-78.01,35.06-125.76
		c-28.23-50.18-88.21-61.89-132.61-33.8c-50.7,32.07-60.04,106.2-12.49,149.44c-4.51,3.37-8.91,6.65-13.29,9.92
		C54.03,176.96,34.74,130.8,48.32,85.12C62.05,38.9,105.74,5.28,152.31,5.27c52.64,0,94.9,31.02,109.66,80.12
		c13.22,43.98-2.7,97.79-48.72,126.31c10.95,7.21,24.99,2.46,30.8-10.1c2.68-5.79,5.99-11.3,9.14-16.86
		c3.29-5.82,7.09-11.38,10.01-17.38c2.89-5.94,4.96-12.29,7.39-18.45C271.27,148.8,271.94,148.69,272.62,148.57z"/>
	<path class="st0" d="M144.06,352.5c0.51-8.86,1.02-17.96,1.56-27.05c0.08-1.29-0.23-3.06,0.48-3.8
		c6.45-6.64,7.74-17.69,18.82-20.51c11.52-2.94,23.73,2.89,27.75,14.37c4.6,13.11,5.35,25.01,2.59,39.8
		C178.38,354.39,161.53,353.46,144.06,352.5z M156.63,320.81c10.17,0.6,19.89,1.17,29.66,1.75c1.52-7.56-5.93-14.42-13.07-15.13
		C164.4,306.55,158.43,311.25,156.63,320.81z"/>
	<path class="st0" d="M181.5,410.42c5.03-16.91,13.44-23.29,26.52-21.52c11.31,1.53,18.56,10.37,18.54,23.04
		c-2.09-0.02-4.18-0.04-6.22-0.07c-2.15-13.63-12.39-19.98-22.81-14.44c-6.84,3.64-7.87,6.65-4.86,13.86
		c0.31,0.74,0.07,1.71,0.06,2.57c-0.01,0.87-0.06,1.74-0.1,2.61c-0.36,8.43-0.72,16.87-1.07,25.17c-17.44-0.9-34.29-1.77-50.7-2.62
		c0.58-10.09,1.18-20.44,1.81-31.31C154.83,408.56,168.16,409.49,181.5,410.42z"/>
</g>
</svg>
