<?xml version="1.0" encoding="utf-8"?>
<!-- Generator: Adobe Illustrator 24.0.1, SVG Export Plug-In . SVG Version: 6.00 Build 0)  -->
<svg version="1.1" id="Camada_1" xmlns="http://www.w3.org/2000/svg" xmlns:xlink="http://www.w3.org/1999/xlink" x="0px" y="0px"
	 viewBox="0 0 500 500" style="enable-background:new 0 0 500 500;" xml:space="preserve">
<style type="text/css">
	.st0{fill:#FFFFFF;}
</style>
<g>
	<path class="st0" d="M107.47,181.94c0.47-28.52,4.27-56.43,14.48-83.2c9.04-23.72,22.23-44.68,41.84-61.2
		c17.99-15.16,38.7-24.55,61.98-27.64c22.48-2.98,44.44,0.01,65.86,7.43c33.58,11.64,61.61,31.65,86.29,56.78
		c29.76,30.3,52.05,65.49,68.85,104.39c8.53,19.75,15.3,40.02,20.3,60.91c6.74,28.13,9.75,56.69,8.38,85.57
		c-1.45,30.41-7.73,59.76-21.58,87.17c-10.12,20.02-23.69,37.29-42.13,50.17c-19.29,13.46-40.67,21.04-64.51,22.13
		c-29.74,1.36-57-6.36-82.93-20.12c-27.25-14.47-50.28-34.22-70.47-57.3c-26.49-30.28-46.47-64.59-61.38-101.88
		c-9.02-22.56-15.71-45.84-19.93-69.75c-1.76-9.97-2.55-20.12-3.51-30.21C108.27,197.45,107.97,189.69,107.47,181.94z
		 M430.56,308.83c-0.18-2.64-0.61-7.84-0.9-13.06c-1.12-20.49-5.02-40.49-10.61-60.19c-7.71-27.16-18.88-52.84-33.44-77.02
		c-17.05-28.32-37.59-53.69-64.14-73.7c-21.83-16.45-45.38-28.79-73.49-30.37c-12.93-0.73-25.26,1.15-36.93,6.54
		c-17.59,8.12-30.14,21.55-39.32,38.4c-12.75,23.39-17.31,48.8-18.4,75.01c-1.05,25.15,2.38,49.84,8.59,74.17
		c8.09,31.67,20.7,61.39,37.78,89.31c18.01,29.44,40.02,55.15,68.21,75.19c22.63,16.08,47.25,26.92,75.8,26.07
		c13.36-0.4,25.72-4.09,37.08-11.11c19.58-12.11,31.22-30.4,38.95-51.35C427.49,355.72,430.15,333.73,430.56,308.83z"/>
	<path class="st0" d="M195.32,457.53c-22.22,2.93-43.63-0.55-64.09-9.28c-45.12-19.25-74.88-53.32-93.31-98.07
		c-10.24-24.86-14.84-50.77-13.44-77.57c1.62-31.13,10.77-59.83,30.3-84.56c5.41-6.85,11.97-12.8,18.01-19.17
		c0.53,0.3,1.07,0.6,1.6,0.9c-0.57,1.99-0.73,4.24-1.79,5.93c-10.6,16.85-17.24,35.09-20.35,54.77c-2.36,14.94-2.63,29.85-1.4,44.85
		c3.36,41.22,18.01,78.28,42.11,111.55c17.9,24.71,40.21,44.71,68.32,57.3c9.04,4.05,18.9,6.25,28.36,9.38
		c2.12,0.7,4.14,1.74,6.2,2.62C195.67,456.63,195.49,457.08,195.32,457.53z"/>
	<path class="st0" d="M182.67,447.72c-6.79-2.89-13.76-5.41-20.34-8.72c-30.17-15.19-53.33-38.05-71.55-66.2
		c-13.6-21.02-23.17-43.83-29.12-68.08c-5.19-21.18-6.94-42.78-4.96-64.51c1.63-17.86,6.09-35.1,13.63-51.46
		c0.46-1.01,1.15-1.91,1.61-2.68C74.24,287.88,111,374.87,182.67,447.72z"/>
	<path class="st0" d="M285.92,491.24c-6.23-1.8-12.57-3.33-18.68-5.46c-33.02-11.52-61.04-30.91-85.84-55.21
		c-27-26.47-48.16-57.12-64.92-90.94c-9.01-18.19-16.59-36.98-22.35-56.39c-5.52-18.63-9.58-37.63-11.99-57.03
		c-2.04-16.45-2.72-32.9-2.05-49.34c1.42-34.95,8.82-68.47,26.46-99.15c13.09-22.76,30.59-41.08,54.12-53.25
		c1.02-0.53,2.12-0.88,3.37-0.89c-4.84,3.68-9.8,7.2-14.48,11.07c-16.67,13.78-28.89,31-38.03,50.44
		c-9.37,19.92-14.9,40.96-17.91,62.74c-3.58,25.94-3.3,51.9,0.16,77.75c4.72,35.33,14.72,69.22,29.36,101.78
		c14.11,31.4,32.01,60.4,54.47,86.44c23.97,27.78,51.72,51,85.12,66.85c6.84,3.25,14.06,5.7,21.1,8.52c0.85,0.34,1.69,0.7,2.54,1.06
		C286.22,490.54,286.07,490.89,285.92,491.24z"/>
	<path class="st0" d="M199.69,234.21c0.17-18.45,2.64-32.64,10.8-45.33c10.36-16.14,27.51-22.9,46.17-18.41
		c16.78,4.04,29.86,13.87,41.04,26.46c18.32,20.63,29.06,44.94,32.48,72.15c2.22,17.65,1.24,35.27-7.63,51.52
		c-10.73,19.65-29.58,27.79-51.08,21.62c-16.68-4.79-29.56-15.32-40.49-28.31c-14.77-17.56-24.31-37.79-28.82-60.26
		C200.64,246.09,200.19,238.31,199.69,234.21z"/>
</g>
</svg>
