<?xml version="1.0" encoding="utf-8"?>
<!-- Generator: Adobe Illustrator 24.0.1, SVG Export Plug-In . SVG Version: 6.00 Build 0)  -->
<svg version="1.1" id="Camada_1" xmlns="http://www.w3.org/2000/svg" xmlns:xlink="http://www.w3.org/1999/xlink" x="0px" y="0px"
	 viewBox="0 0 477.73 342.9" style="enable-background:new 0 0 477.73 342.9;" xml:space="preserve">
<style type="text/css">
	.st0{fill:#474747;}
</style>
<g>
	<path class="st0" d="M477.73,40.47c0,87.32,0,174.64,0,261.96c-0.26,0.51-0.62,0.98-0.78,1.52c-0.86,2.98-1.45,6.06-2.54,8.95
		c-1.97,5.23-4.94,9.89-8.64,14.14c-4.72,5.41-10.46,9.41-16.96,12.14c-6.58,2.77-13.6,3.75-20.78,3.75
		c-113.18-0.04-226.35-0.02-339.53-0.02c-13.4,0-26.8,0-40.2,0c-9.85,0-19.06-2.46-27.24-7.95c-9.62-6.45-16.18-15.29-19.22-26.59
		c-0.54-2-1.23-3.96-1.85-5.94c0-87.32,0-174.64,0-261.96c0.26-0.51,0.62-0.98,0.77-1.52c0.86-2.98,1.45-6.06,2.54-8.95
		c1.97-5.23,4.94-9.89,8.64-14.14c4.72-5.41,10.46-9.41,16.96-12.14c6.58-2.77,13.6-3.75,20.78-3.75C162.87,0.01,276.05,0,389.23,0
		c13.4,0,26.8,0,40.2,0c9.85,0,19.06,2.47,27.24,7.95c9.62,6.45,16.18,15.28,19.22,26.58C476.42,36.53,477.11,38.49,477.73,40.47z
		 M238.86,311.56c63.1,0,126.2,0,189.29,0c1.39,0,2.79-0.02,4.18-0.1c4.04-0.23,7.35-2.01,10.09-4.91
		c3.43-3.63,4.21-8.11,4.21-12.88c-0.01-81.48-0.01-162.95-0.01-244.43c0-0.6,0.01-1.19-0.01-1.79c-0.21-5.46-2.13-10.04-6.71-13.32
		c-3.36-2.41-7.16-2.81-11.14-2.81c-126.59,0.02-253.19,0.02-379.78,0.02c-1.19,0-2.39,0.03-3.58,0.1
		c-4.04,0.24-7.35,2.01-10.09,4.91c-3.43,3.63-4.21,8.11-4.21,12.88c0.01,81.48,0.01,162.95,0.01,244.43c0,0.6-0.01,1.19,0.01,1.79
		c0.21,5.46,2.13,10.05,6.71,13.32c3.3,2.36,7.02,2.81,10.94,2.81C112.14,311.56,175.5,311.56,238.86,311.56z"/>
	<path class="st0" d="M62.39,171.25c0-30.58,0.02-61.16-0.02-91.74c-0.01-4.25,0.77-8.16,3.63-11.45c3.76-4.33,8.53-6.36,14.17-5.43
		c6.07,1,10.43,4.45,12.34,10.45c0.59,1.85,0.87,3.89,0.87,5.84c0.04,61.69,0.03,123.39,0.05,185.08c0,6.97-2.94,12.07-9.28,15.11
		c-7.97,3.82-18.26-0.6-20.79-9.08c-0.67-2.24-0.92-4.68-0.92-7.02C62.37,232.41,62.39,201.83,62.39,171.25z"/>
	<path class="st0" d="M415.34,171.47c0,30.65-0.03,61.3,0.03,91.94c0.01,4.41-0.86,8.43-3.9,11.75c-3.8,4.16-8.55,6.08-14.12,5.08
		c-5.9-1.06-10.15-4.44-12.07-10.24c-0.63-1.91-0.92-4.01-0.92-6.03c-0.05-61.69-0.03-123.39-0.05-185.08
		c0-6.98,2.96-12.07,9.29-15.1c7.97-3.82,18.23,0.61,20.78,9.11c0.67,2.24,0.92,4.68,0.92,7.02
		C415.36,110.44,415.34,140.95,415.34,171.47z"/>
	<path class="st0" d="M218.18,140.38c0,20.3,0,40.59,0,60.89c0,5.54-1.86,10.23-6.32,13.73c-8.79,6.9-22.41,1.8-24.45-9.18
		c-0.33-1.75-0.54-3.55-0.54-5.33c-0.03-40.19-0.02-80.38-0.03-120.58c0-6.12,1.81-11.39,7.16-14.87c5.16-3.36,10.63-3.61,16-0.63
		c5.52,3.07,8.12,8.07,8.15,14.29c0.08,14.66,0.03,29.32,0.03,43.97C218.19,128.58,218.19,134.48,218.18,140.38z"/>
	<path class="st0" d="M249.2,140.18c0-20.43-0.02-40.86,0.02-61.28c0.01-6.92,3.05-12.06,9.37-15.12
		c8.83-4.28,20.2,1.84,21.48,11.58c0.19,1.44,0.35,2.9,0.35,4.36c0.02,40.39,0.01,80.78,0.03,121.18c0,5.51-1.55,10.26-5.97,13.88
		c-8.45,6.93-21.84,2.6-24.48-8.02c-0.48-1.91-0.74-3.92-0.74-5.88C249.18,180.64,249.2,160.41,249.2,140.18z"/>
	<path class="st0" d="M155.81,140.41c0,20.43,0.01,40.86-0.01,61.29c-0.01,6.75-2.88,11.83-8.98,14.94c-9.15,4.66-20.9-1.77-21.9-12
		c-0.12-1.19-0.25-2.38-0.25-3.57c-0.01-40.46-0.01-80.92-0.01-121.38c0-4.42,0.79-8.57,3.93-11.95c3.89-4.2,8.67-6.12,14.31-5.03
		c6.14,1.19,10.38,4.83,12.12,10.95c0.55,1.94,0.77,4.03,0.77,6.06C155.83,99.95,155.81,120.18,155.81,140.41z"/>
	<path class="st0" d="M321.93,140.2c0-20.43,0-40.86,0-61.29c0-7.04,3.12-12.17,9.51-15.21c8.92-4.24,20.41,2.24,21.36,12.03
		c0.18,1.84,0.27,3.7,0.28,5.56c0.02,39.8,0,79.59,0.02,119.39c0,4.64-0.83,8.96-4.18,12.46c-3.98,4.16-8.9,5.86-14.45,4.69
		c-5.92-1.25-10.08-4.89-11.73-10.88c-0.52-1.88-0.77-3.9-0.78-5.86C321.9,180.79,321.93,160.5,321.93,140.2z"/>
	<path class="st0" d="M264.64,280.51c-8.45-0.13-15.54-7.4-15.41-15.81c0.13-8.43,7.19-15.33,15.66-15.29
		c8.6,0.04,15.59,7.13,15.44,15.65C280.18,273.69,273.11,280.65,264.64,280.51z"/>
	<path class="st0" d="M202.51,280.52c-8.44,0-15.64-7.23-15.57-15.65c0.07-8.49,6.98-15.38,15.5-15.45
		c8.52-0.07,15.7,7.01,15.7,15.48C218.13,273.31,210.92,280.52,202.51,280.52z"/>
	<path class="st0" d="M155.77,264.96c-0.02,8.46-7.19,15.59-15.64,15.55c-8.52-0.03-15.49-7.14-15.41-15.71
		c0.09-8.58,6.92-15.39,15.46-15.39C148.75,249.42,155.79,256.44,155.77,264.96z"/>
	<path class="st0" d="M337.31,280.51c-8.48-0.15-15.47-7.37-15.35-15.84c0.13-8.43,7.23-15.34,15.67-15.25
		c8.65,0.09,15.57,7.15,15.37,15.68C352.8,273.8,345.81,280.67,337.31,280.51z"/>
</g>
</svg>
