<?xml version="1.0" encoding="utf-8"?>
<!-- Generator: Adobe Illustrator 24.0.1, SVG Export Plug-In . SVG Version: 6.00 Build 0)  -->
<svg version="1.1" id="Camada_1" xmlns="http://www.w3.org/2000/svg" xmlns:xlink="http://www.w3.org/1999/xlink" x="0px" y="0px"
	 viewBox="0 0 500 500" style="enable-background:new 0 0 500 500;" xml:space="preserve">
<style type="text/css">
	.st0{fill:#FFFFFF;}
</style>
<g>
	<path class="st0" d="M4.97,91.42c0-1.18,0-2.37,0-3.55c1.82-0.16,3.65-0.56,5.45-0.46c8.46,0.48,16.91,1.08,25.37,1.65
		c19.25,1.3,38.51,2.6,57.76,3.89c18.5,1.24,37,2.47,55.5,3.72c19.25,1.29,38.51,2.6,57.76,3.89c18.5,1.24,37,2.47,55.5,3.72
		c21.77,1.46,43.53,2.93,65.3,4.4c5.15,0.35,10.3,0.73,15.58,1.1c0.67,110.52,1.33,220.73,2,331.18c-1.12-0.27-2-0.46-2.87-0.7
		c-41.54-11.75-83.08-23.51-124.62-35.24c-64.94-18.34-129.88-36.67-194.83-54.97c-1.69-0.48-2.44-1.13-2.53-3.02
		c-0.49-9.71-1.16-19.41-1.73-29.11c-1.25-21.27-2.46-42.53-3.72-63.8c-1.59-26.83-3.24-53.66-4.83-80.5
		c-1.43-24.13-2.81-48.27-4.24-72.4C5.64,97.95,5.27,94.68,4.97,91.42z M185.75,233.07c-0.3-3.3-0.72-9.44-1.44-15.55
		c-2.51-21.09-9.21-40.76-20.22-58.86c-10.48-17.23-23.79-31.63-41.92-40.92c-12.99-6.65-26.71-9.43-41.2-6.74
		c-16.44,3.05-29.07,12.23-38.89,25.51c-12.71,17.17-18.15,36.96-19.32,57.98c-1.52,27.33,4.06,53.31,16.68,77.56
		c11.27,21.67,26.54,39.63,48.96,50.32c15.33,7.31,31.21,8.91,47.41,3.22c16.62-5.84,28.11-17.65,36.45-32.84
		C181.96,275.08,185.48,255.9,185.75,233.07z M293.16,358.53c0.27-30.97-17.27-58.04-41.7-68.48c-10.94-4.67-22.23-6.03-33.6-1.93
		c-15.48,5.58-24.02,17.32-27.27,33.11c-3.28,15.94,0,30.97,7.78,44.97c9.04,16.28,21.94,28.24,40.17,33.09
		c17.05,4.54,32.19,0.91,43.95-12.97C290.24,377.18,293.06,366.14,293.16,358.53z"/>
	<path class="st0" d="M490.12,326.31c-7.61,7.13-15.25,14.23-22.83,21.4c-31.45,29.74-62.88,59.49-94.32,89.24
		c-0.54,0.52-1.11,1.01-2.01,1.84c-0.06-1.13-0.14-1.91-0.14-2.68c-0.26-42.94-0.5-85.89-0.76-128.83
		c-0.4-64.16-0.8-128.32-1.23-192.49c-0.01-1.5-0.02-2.56,1.87-3.19c24.51-8.12,48.98-16.35,73.46-24.55
		c0.31-0.1,0.64-0.14,1.33-0.29c0.78,4.08,1.57,8.09,2.31,12.1c6.63,35.68,13.25,71.37,19.88,107.06
		c6.48,34.85,12.95,69.71,19.45,104.56c0.92,4.96,2,9.89,3,14.83C490.12,325.63,490.12,325.97,490.12,326.31z"/>
	<path class="st0" d="M427.21,71.54c-0.66,0.26-1.3,0.56-1.97,0.78c-23.19,7.29-46.38,14.59-69.58,21.83
		c-4,1.25-8.12,1.41-12.34,1.12c-32.56-2.27-65.12-4.43-97.68-6.62c-35.24-2.38-70.48-4.75-105.72-7.12
		c-27.46-1.85-54.91-3.7-82.37-5.56c-10.29-0.7-20.59-1.42-30.98-2.55c2.03-0.42,4.06-0.86,6.1-1.25
		c27.11-5.1,54.2-10.23,81.33-15.22c2.68-0.49,5.52-0.19,8.28-0.06c39.9,1.84,79.79,3.71,119.69,5.57
		c36.13,1.69,72.25,3.38,108.38,5.06c25.15,1.18,50.29,2.35,75.44,3.53c0.46,0.02,0.91,0.07,1.37,0.11
		C427.17,71.29,427.19,71.42,427.21,71.54z"/>
	<path class="st0" d="M70.95,220.24c0.04-9.55,1.9-18.61,7.26-26.67c4.25-6.39,9.95-10.68,17.66-11.94
		c5.84-0.95,11.23,0.54,16.28,3.29c8.86,4.83,14.89,12.38,19.09,21.38c6.97,14.95,8.79,30.39,3.3,46.25c-1,2.89-2.44,5.72-4.12,8.27
		c-8.52,12.95-23.09,15.96-36.08,7.55c-7.85-5.08-13.28-12.25-17.23-20.62C73,239.08,70.95,229.89,70.95,220.24z"/>
	<path class="st0" d="M216.54,343.55c0.13-6.73,1.77-12.22,6.39-16.39c4.83-4.37,10.54-5.34,16.69-3.65
		c14.11,3.88,23.71,20.9,19.85,35.08c-2.96,10.89-13.13,16.38-23.63,12.42c-10.8-4.08-16.63-12.45-18.87-23.6
		C216.66,345.94,216.62,344.41,216.54,343.55z"/>
</g>
</svg>
