<?xml version="1.0" encoding="utf-8"?>
<!-- Generator: Adobe Illustrator 24.0.1, SVG Export Plug-In . SVG Version: 6.00 Build 0)  -->
<svg version="1.1" id="Camada_1" xmlns="http://www.w3.org/2000/svg" xmlns:xlink="http://www.w3.org/1999/xlink" x="0px" y="0px"
	 viewBox="0 0 800 800" style="enable-background:new 0 0 800 800;" xml:space="preserve">
<style type="text/css">
	.st0{fill:#FFFFFF;}
</style>
<path class="st0" d="M645.4,788.25c-8.53-2.27-17.47-3.58-25.52-6.99c-31.85-13.49-50.09-46.73-45.4-81.36
	c4.35-32.12,33.11-60.02,66.27-64.3c40.78-5.26,80.56,25.84,85.06,66.5c4.7,42.45-24.65,80.24-65.97,85
	c-1.27,0.15-2.48,0.76-3.72,1.15C652.55,788.25,648.97,788.25,645.4,788.25z M693.5,711.3c-0.03-24.03-19.31-43.26-43.49-43.39
	c-23.12-0.12-43.57,20.52-43.42,43.81c0.15,23.11,20.18,43,43.38,43.07C673.51,754.87,693.53,734.86,693.5,711.3z"/>
<path class="st0" d="M389.42,788.25c-5.56-1.34-11.21-2.38-16.65-4.08c-32.83-10.25-55.59-42.83-53.53-76.41
	c2.16-35.25,27.79-64.66,61.95-71.09c40.72-7.66,79.96,18.44,88.91,59.13c8.64,39.27-16.85,79.83-56.41,89.72
	c-4.05,1.01-8.14,1.82-12.22,2.72C397.46,788.25,393.44,788.25,389.42,788.25z M351.94,711.09c-0.12,23.4,20,43.72,43.34,43.75
	c23.17,0.03,43.42-19.79,43.66-42.72c0.24-23.77-19.97-44.22-43.65-44.16C372.18,668.03,352.05,688.06,351.94,711.09z"/>
<path class="st0" d="M254.29,617.75c0-11.04,0-21.28,0-32.7c2.98,0,5.76,0,8.55,0c133.56-0.02,267.12-0.09,400.68,0
	c15.92,0.01,31.08-2.39,44.82-10.84c21.28-13.09,34.55-31.43,33.27-57.13c-1.28-25.84-16.08-43.26-38.69-54.47
	c-11.65-5.77-24.19-7.64-37.06-7.64c-121.28-0.01-242.56-0.01-363.84-0.02c-13.4,0-26.8,0-40.2-0.07
	c-10.55-0.06-14.87-3.14-18.21-13.21c-27.79-83.94-55.56-167.89-83.3-251.85c-15.81-47.84-31.61-95.68-47.25-143.58
	c-1.41-4.31-3.36-5.84-8.02-5.8c-28.59,0.25-57.18,0.14-85.77,0.16c-2.39,0-4.79,0-7.54,0c0-11.06,0-21.43,0-32.26
	c1.76-0.12,3.26-0.32,4.75-0.32c35.07-0.02,70.13-0.05,105.2,0c10.28,0.01,14.42,3,17.7,12.8c8.1,24.24,16.18,48.48,24.05,72.79
	c1.36,4.2,3.09,5.9,7.88,5.89c197-0.15,393.99-0.13,590.99-0.14c3.13,0,6.26-0.15,9.38,0.05c11.62,0.75,18.14,9.88,14.61,20.95
	c-18.04,56.52-36.22,113-54.36,169.48c-13.42,41.8-26.87,83.59-40.3,125.38c-0.81,2.53-1.56,5.09-2.57,8.37
	c2.62,0.65,4.92,1.15,7.18,1.8c41.29,11.97,69.45,37.3,77.13,80.6c5.7,32.16-5.7,59.88-29.32,82.09
	c-21.36,20.08-47.27,29.88-76.54,29.91c-135.57,0.12-271.15,0.05-406.72,0.03C258.81,618.04,256.85,617.87,254.29,617.75z
	 M176.75,132.26c0.57,2.4,0.82,3.92,1.3,5.37c30.78,93.15,61.59,186.28,92.28,279.45c1.36,4.11,3.37,5.33,7.65,5.33
	c123.51-0.12,247.01-0.13,370.52,0.05c5.28,0.01,7.29-1.89,8.79-6.58c29.53-92.11,59.21-184.18,88.84-276.27
	c0.72-2.25,1.29-4.55,2.08-7.35C557.39,132.26,367.42,132.26,176.75,132.26z"/>
</svg>
