<?xml version="1.0" encoding="utf-8"?>
<!-- Generator: Adobe Illustrator 24.0.1, SVG Export Plug-In . SVG Version: 6.00 Build 0)  -->
<svg version="1.1" id="Camada_1" xmlns="http://www.w3.org/2000/svg" xmlns:xlink="http://www.w3.org/1999/xlink" x="0px" y="0px"
	 viewBox="0 0 477.73 342.9" style="enable-background:new 0 0 477.73 342.9;" xml:space="preserve">
<style type="text/css">
	.st0{fill:#FFFFFF;}
	.st1{fill:#474747;}
</style>
<path class="st0" d="M465.58,291.16c-151.14,0-302.29,0-453.43,0c0-92.58,0-185.15,0-277.73c151.14,0,302.29,0,453.43,0
	C465.58,106.01,465.58,198.59,465.58,291.16z M239.61,290.4c64.69,0,129.37,0.05,194.06-0.03c19.89-0.02,30.52-10.85,30.52-30.67
	c0.01-70.59-0.48-141.18,0.31-211.76c0.22-19.99-12.76-33.33-33.64-33.24c-128.9,0.54-257.8,0.27-386.7,0.27
	c-19.33,0-30.58,11.34-30.59,30.8c-0.01,70.35-0.01,140.7-0.01,211.06c0,23.85,9.61,33.55,33.4,33.56
	C111.18,290.42,175.39,290.4,239.61,290.4z"/>
<path class="st1" d="M239.62,306.46c-66.1,0-132.2,0.02-198.3-0.01c-24.49-0.01-34.38-10-34.38-34.55c0-72.42,0-144.83,0.01-217.25
	c0-20.03,11.58-31.71,31.48-31.71c132.68-0.01,265.37,0.27,398.05-0.28c21.5-0.09,34.86,13.64,34.63,34.22
	c-0.81,72.65-0.31,145.32-0.32,217.98c0,20.41-10.95,31.55-31.42,31.57C372.79,306.51,306.21,306.46,239.62,306.46z M460.25,64.28
	c-147.97,0-295.32,0-442.46,0c0,21.37,0,42.11,0,62.84c147.8,0,294.97,0,442.46,0C460.25,105.99,460.25,85.41,460.25,64.28z
	 M379.67,256.44c14.65,18.95,37.52,22.36,53.91,8.44c15.44-13.12,17.22-36.84,3.97-51.46c-7.07-7.8-15.87-12.21-26.23-12.38
	c-13.38-0.22-23.86,6.11-31.75,16.83c-16.02-19.48-38.89-22.4-55.03-7.42c-15.54,14.42-15.65,38.6-0.23,53.14
	C340.63,278.99,363.72,276.11,379.67,256.44z M292.18,174.75c10.2,0,20.39,0.14,30.59-0.05c7.47-0.14,10.44-3.91,10.51-12.59
	c0.07-8.22-3.36-12.51-10.61-12.56c-20.15-0.15-40.29-0.18-60.44-0.08c-7.38,0.04-10.23,3.85-10.22,12.71
	c0.01,8.94,2.7,12.37,10.32,12.5C272.28,174.87,282.23,174.74,292.18,174.75z M77.7,174.75c10.19,0,20.39,0.18,30.57-0.06
	c7.58-0.18,10.59-4.01,10.57-12.52c-0.03-8.59-3.07-12.57-10.48-12.62c-20.14-0.15-40.29-0.11-60.43,0.04
	c-7.62,0.06-10.33,3.59-10.33,12.51c0.01,8.99,2.65,12.46,10.25,12.62C57.8,174.91,67.75,174.76,77.7,174.75z M399.54,174.75
	c0-0.01,0-0.03,0-0.04c10.18,0,20.37,0.17,30.55-0.06c7.69-0.17,10.07-3.41,10.05-12.66c-0.01-9.07-2.52-12.36-10.32-12.42
	c-19.88-0.16-39.77-0.17-59.65-0.05c-8.12,0.05-10.94,3.56-10.94,12.75c0,9.07,2.77,12.3,11.21,12.44
	C380.14,174.87,389.84,174.75,399.54,174.75z M185.63,149.48c0,0.03,0,0.05,0,0.08c-10.19,0-20.38-0.1-30.57,0.03
	c-7.27,0.09-10.07,3.5-10.23,11.9c-0.18,9.26,2.35,13.1,9.64,13.17c20.38,0.22,40.76,0.23,61.14,0.07
	c7.68-0.06,10.13-3.47,10.13-12.67c0-8.97-2.64-12.4-10.27-12.54C205.53,149.34,195.58,149.48,185.63,149.48z"/>
</svg>
