<?xml version="1.0" encoding="utf-8"?>
<!-- Generator: Adobe Illustrator 24.0.1, SVG Export Plug-In . SVG Version: 6.00 Build 0)  -->
<svg version="1.1" id="Camada_1" xmlns="http://www.w3.org/2000/svg" xmlns:xlink="http://www.w3.org/1999/xlink" x="0px" y="0px"
	 viewBox="0 0 500 500" style="enable-background:new 0 0 500 500;" xml:space="preserve">
<style type="text/css">
	.st0{fill:#FFFFFF;}
</style>
<path class="st0" d="M243.65,1.9c8.44,0,16.88,0,25.32,0c0.87,0.14,1.74,0.31,2.61,0.43c11.72,1.54,23.58,2.37,35.14,4.72
	c37.14,7.58,70.55,23.43,100.22,47.05c4.99,3.97,9.74,8.25,14.43,12.23c-23.89,23.89-47.51,47.5-71.2,71.18
	c-0.2-0.17-0.59-0.46-0.94-0.79c-22.55-20.68-49.02-32.66-79.51-35.58c-19.27-1.85-38.23-0.1-56.73,5.66
	c-28.84,8.98-52.93,25.21-71.63,48.86c-30.57,38.67-40.89,82.31-29.82,130.5c5.75,25.03,17.74,47.05,34.91,66.15
	c15.99,17.78,35.1,31.11,57.47,39.71c21.36,8.22,43.44,10.72,66.16,8.83c17.01-1.41,33.51-4.9,49.1-11.91
	c35.55-15.99,59.08-42.4,68.84-80.51c0.53-2.06,0.9-4.15,1.41-6.51c-45.1,0-89.71,0-134.38,0c0-32.04,0-63.87,0-95.88
	c1.15,0,2.11,0,3.07,0c76.14,0,152.27,0,228.41,0c0.57,0,1.24-0.19,1.68,0.05c0.7,0.38,1.72,0.98,1.8,1.59
	c1.23,9.48,2.68,18.95,3.37,28.48c1.22,16.94,0.91,33.88-0.79,50.8c-2.19,21.94-6.73,43.36-14.3,64.07
	c-17.14,46.87-45.92,84.69-88.06,111.82c-34.18,22.01-71.98,33.16-112.32,36.3c-3.63,0.28-7.25,0.62-10.88,0.93
	c-7.63,0-15.26,0-22.89,0c-0.96-0.14-1.91-0.36-2.87-0.41c-17.38-0.86-34.47-3.6-51.24-8.2c-47.43-13.01-87.82-37.62-120.61-74.28
	c-37.34-41.73-58.04-90.79-62.81-146.52c-1.66-19.45-0.81-38.88,2.23-58.21c4.11-26.13,12.03-51.02,24.12-74.51
	C58.31,88.7,95.93,51.77,145.58,27.21c27.88-13.79,57.41-21.86,88.43-24.4C237.23,2.55,240.44,2.21,243.65,1.9z"/>
</svg>
