<?xml version="1.0" encoding="utf-8"?>
<!-- Generator: Adobe Illustrator 24.0.1, SVG Export Plug-In . SVG Version: 6.00 Build 0)  -->
<svg version="1.1" id="Camada_1" xmlns="http://www.w3.org/2000/svg" xmlns:xlink="http://www.w3.org/1999/xlink" x="0px" y="0px"
	 viewBox="0 0 800 800" style="enable-background:new 0 0 800 800;" xml:space="preserve">
<style type="text/css">
	.st0{fill:#FFFFFF;}
</style>
<path class="st0" d="M781.54,295.65c-0.28-12.02-0.48-24.05-0.85-36.07c-1.33-43.8-13.68-84.15-35.41-121.54
	c-31-53.35-75.08-90.74-131.85-111.78C556.82,5.28,499.61,5.24,442.18,24.83c-34.85,11.88-65.77,31.07-92.3,56.57
	c-34.8,33.45-59.31,73.93-72.32,121.62c-10.41,38.13-12.98,76.38-7.07,115.22c5.91,38.83,19.53,74.57,41.66,107.48
	c-14.21,14.53-28.45,29.16-42.77,43.72c-23.84,24.25-47.76,48.41-71.59,72.68c-31.87,32.47-63.67,65-95.51,97.5
	c-20.74,21.17-41.83,41.99-62.02,63.7c-6.15,6.62-9.82,15.67-14.62,23.61c-0.21,1.78-0.43,3.55-0.64,5.33
	c2.19,22.62,14.71,37.72,33.66,47.52c13.03,6.74,30.39,3.58,40.87-7.02c36.52-36.94,72.88-74.05,109.26-111.13
	c27.72-28.25,55.36-56.6,83.09-84.84c27.73-28.23,55.54-56.37,82.22-83.44c21.23,10.46,41.45,22.15,62.89,30.56
	c27.29,10.69,56.1,14.46,85.6,14.78c28.88,0.32,56.67-4.42,83.79-13.92c49.17-17.22,89.69-47.11,121.42-89.62
	c24.85-33.29,41.25-70.36,48.78-111.54c0.53-2.87,1.72-5.62,2.61-8.42C779.97,308.67,780.75,302.16,781.54,295.65z M500.76,470.75
	c-105.27-12.9-177.88-109.53-167.25-214.41C345,143.05,442.44,65.72,548.67,78.97C654.41,92.16,725.37,187.66,715.19,293.2
	C704.3,406.09,605.42,483.12,500.76,470.75z"/>
</svg>
