<?xml version="1.0" encoding="utf-8"?>
<!-- Generator: Adobe Illustrator 24.0.1, SVG Export Plug-In . SVG Version: 6.00 Build 0)  -->
<svg version="1.1" id="Camada_1" xmlns="http://www.w3.org/2000/svg" xmlns:xlink="http://www.w3.org/1999/xlink" x="0px" y="0px"
	 viewBox="0 0 500 500" style="enable-background:new 0 0 500 500;" xml:space="preserve">
<style type="text/css">
	.st0{fill:#FFFFFF;}
</style>
<path class="st0" d="M65.77,467.19c-2.56,0-5.11,0-7.67,0c-5.93-4.81-9.34-11.09-11.36-18.58c-2.94-10.9-4.59-22.01-5.95-33.18
	c-0.78-6.38-1.29-12.81-1.53-19.24c-0.26-6.78,0.78-7.74,7.25-8.36c1.61-0.15,2.51-0.65,2.49-2.7c-0.12-9.98-0.16-19.97-0.01-29.95
	c0.04-2.55-0.87-3.14-3.07-3.07c-3.49,0.11-6.98,0.07-10.47-0.04c-1.89-0.06-4.09-0.36-4.34-2.73c-0.65-6.15-1.35-12.34-1.36-18.52
	c-0.01-5.81,0.8-11.62,1.3-17.43c0.28-3.26,1.37-4.84,3.59-4.88c5.82-0.08,11.64-0.03,17.66-0.03c0-4.59,0-8.74,0-12.89
	c-5.08,0.9-6.03,0-5.56-5.3c0.02-0.26,0-0.54,0.07-0.78c0.43-1.56,0.49-3.52,1.46-4.55c0.77-0.82,2.68-0.52,4.2-0.74
	c0-9.72,0-19.59,0-28.87c-1.79-0.48-4.06-0.39-4.67-1.38c-1.65-2.69-1.51-6.05-0.01-8.72c0.65-1.16,3.06-1.27,5.03-1.99
	c0-2.06,0-4.73,0-7.4c-4.94,0.33-5.21,0.26-5.71-4.3c-0.22-2.02-0.27-4.53,0.71-6.08c0.72-1.14,3.23-1.1,5.08-1.62
	c0-2.85,0-5.85,0-8.93c-2.45,1.85-4.73,0.95-4.96-1.92c-0.16-2-0.11-4.03,0-6.04c0.08-1.53,0.66-2.68,2.5-2.57
	c0.81,0.05,1.64-0.21,2.73-0.36c0-3.66,0-7.27,0-10.92c-2.16,1.82-4.49,1.19-4.97-1.55c-0.35-2.02-0.23-4.17-0.04-6.23
	c0.15-1.63,1.11-2.56,2.95-2.53c0.76,0.02,2.19-0.78,2.21-1.26c0.18-3.97,0.1-7.95,0.1-11.31c-0.99-0.27-2-0.25-2.18-0.64
	c-0.88-1.92-2.06-3.93-2.15-5.95c-0.09-2.2-0.69-4.71,1.5-6.71c1.87-1.71,1.89-4.35,1.62-6.83c-0.21-1.94-0.71-3.88-0.7-5.81
	c0.09-11.91,0.29-23.81,0.45-35.72c0.07-5.44,0.07-5.52-5.28-5.53c-2.27,0-3.76-0.97-3.85-3.18c-0.19-4.75-0.53-9.57,0.05-14.25
	c1.22-9.95,2.73-19.88,4.63-29.72c1.36-7.07,3.45-14.01,7.63-20.02c1.58-2.27,3.59-4.15,6.37-4.35c4.37-0.33,8.76-0.34,13.14-0.37
	c0.77,0,1.56,0.56,2.32,0.93c2.71,1.31,5.08,3.1,8.46,3.03c13.1-0.24,26.21-0.1,39.32-0.12c17.18-0.04,34.35-0.17,51.53-0.13
	c20.07,0.05,40.14,0.33,60.21,0.38c14.97,0.04,29.94-0.17,44.9-0.21c16.43-0.04,32.86,0.06,49.29-0.03
	c16.34-0.09,32.68-0.31,49.01-0.52c8.93-0.12,17.87-0.31,26.79-0.6c1.34-0.04,3.29-0.41,3.86-1.34c1.52-2.48,3.53-3.01,6.05-2.95
	c0.48,0.01,0.97-0.44,1.46-0.68c2.73,0,5.45,0,8.18,0c4.24,1.11,6.27,4.39,7.83,8.25c4.32,10.69,5.09,22.1,6.44,33.38
	c0.66,5.45,1.07,10.95,1.32,16.43c0.16,3.54-0.11,7.12-0.35,10.67c-0.17,2.56-0.89,5.1-0.89,7.65c0,12.16,0.04,24.32,0.32,36.47
	c0.15,6.39-3.56,7.61-7.68,8.41c-0.57,0.11-1.15,0.14-2.21,0.27c-0.36,3.49-0.93,6.96-1.03,10.45c-0.16,5.76,0.03,11.53,0.01,17.3
	c-0.02,8.19-0.04,16.39-0.16,24.58c-0.03,1.96,0.67,2.61,2.53,2.6c6.04-0.04,12.09,0.04,18.13,0.11c1.19,0.01,2.37,0.15,3.55,0.3
	c1.79,0.23,2.7,1.38,2.82,3.16c0.37,5.22,0.68,10.43,1.05,15.65c0.05,0.64,0.32,1.27,0.49,1.9c0,11.56,0,23.12,0,34.68
	c-0.14,0.94-0.36,1.87-0.42,2.81c-0.39,5.73-0.72,11.47-1.11,17.2c-0.22,3.17-1.25,4.14-4.28,4.15c-6.98,0.02-13.97-0.04-20.95,0.09
	c-1.12,0.02-2.22,0.88-3.33,1.35c0.4,0.96,0.8,1.91,1.2,2.87c-0.41,1.22-0.28,2.42-0.1,3.62c0.06,0.4,0.34,0.77,0.36,1.16
	c0.33,5.82,0.81,11.64,0.89,17.46c0.11,7.93-0.11,15.85-0.16,23.78c-0.03,4.35-0.01,8.69-0.01,13.26c1.77,0,3.37-0.04,4.98,0.01
	c3.82,0.12,5.27,1.45,5.7,5.29c0.2,1.82,0.32,3.66,0.35,5.49c0.14,9.01,0.22,18.03,0.36,27.04c0.01,0.76,0.22,1.53,0.43,2.26
	c0.57,2.02,1.72,4.03,1.69,6.03c-0.11,8.12-0.58,16.23-0.92,24.35c-0.48,11.14-1.49,22.17-4.39,33.02
	c-1.44,5.38-5.82,7.71-8.89,11.4c-0.32,0.38-1.29,0.26-1.96,0.26c-3.41,0.01-6.81-0.04-10.22-0.01
	c-54.92,0.42-109.83,0.85-164.75,1.28c-57.81,0.45-115.62,0.91-173.43,1.39C74.76,466.81,70.26,467.05,65.77,467.19z M396.71,327.3
	c0-56.29,0-112.36,0-168.35c-103.94,0-207.69,0-311.39,0c0,56.22,0,112.23,0,168.35C189.15,327.3,292.85,327.3,396.71,327.3z
	 M60.16,434.06c121.49,0.42,242.86,0.84,364.31,1.27c0.42-2.65,0.79-4.96,1.18-7.36c-122.47,0-244.74,0-367.23,0
	C59.04,430.14,59.59,432.05,60.16,434.06z M423.75,63.58c-0.36-1.22-0.73-2.2-0.93-3.21c-0.42-2.15-1.52-2.95-3.73-2.81
	c-3.48,0.23-6.98,0.1-10.47,0.11c-55.17,0.16-110.35,0.32-165.52,0.47c-49.81,0.13-99.62,0.24-149.43,0.37
	c-9.54,0.02-19.07,0.08-28.61,0.21c-0.83,0.01-2.13,0.47-2.37,1.08c-0.62,1.55-0.76,3.3-1.13,5.19
	C182.46,64.52,302.99,64.05,423.75,63.58z M414.03,112.96c0.17-0.33,0.34-0.65,0.51-0.98c-1.81-1.22-3.55-3.34-5.44-3.5
	c-6.78-0.57-13.6-0.63-20.41-0.61c-32.27,0.07-64.54,0.26-96.8,0.36c-70.67,0.22-141.34,0.48-212,0.5c-4.3,0-6.34,2.2-8.9,5.28
	C185.62,113.66,299.82,113.31,414.03,112.96z M72.13,375.66c1.57,2.75,1.97,5.24,5.68,5.24c35.59-0.01,71.17,0.25,106.76,0.41
	c70.15,0.32,140.3,0.57,210.45,1.04c5.31,0.04,9.3-2.39,13.52-5.16C296.56,376.68,184.59,376.17,72.13,375.66z M440.45,230.72
	c4.47-0.06,8.08-3.85,8.05-8.45c-0.03-4.6-3.68-8.34-8.15-8.34c-4.57-0.01-8.27,3.88-8.18,8.58
	C432.27,227.1,435.98,230.78,440.45,230.72z M449.53,270.92c0-4.47-3.45-8.13-7.66-8.13s-7.66,3.66-7.65,8.13
	c0,4.47,3.45,8.13,7.66,8.13C446.09,279.06,449.53,275.4,449.53,270.92z M452.08,246.81c0.03-3.89-3.29-7.11-7.35-7.14
	c-4.07-0.03-7.42,3.14-7.45,7.04c-0.03,3.89,3.29,7.11,7.35,7.14C448.7,253.87,452.05,250.7,452.08,246.81z M40.67,345.79
	c3.36,0.03,6.14-2.66,6.18-5.97c0.03-3.31-2.7-6.05-6.06-6.09c-3.36-0.03-6.14,2.66-6.18,5.97
	C34.57,343.01,37.31,345.76,40.67,345.79z M43.07,316.92c-3.25-0.03-5.96,2.53-5.91,5.59c0.05,2.96,2.66,5.4,5.81,5.43
	c3.25,0.03,5.96-2.53,5.91-5.59C48.84,319.39,46.22,316.94,43.07,316.92z"/>
</svg>
