<?xml version="1.0" encoding="utf-8"?>
<!-- Generator: Adobe Illustrator 24.0.1, SVG Export Plug-In . SVG Version: 6.00 Build 0)  -->
<svg version="1.1" id="Camada_1" xmlns="http://www.w3.org/2000/svg" xmlns:xlink="http://www.w3.org/1999/xlink" x="0px" y="0px"
	 viewBox="0 0 500 500" style="enable-background:new 0 0 500 500;" xml:space="preserve">
<style type="text/css">
	.st0{fill:#FFFFFF;}
</style>
<g>
	<path class="st0" d="M473.62,96.36c-2.21,6.3-7.46,9.7-12.54,13.33c-3.97,2.84-7.75,5.94-11.01,8.45
		c-3.55-1.87-6.63-3.27-9.48-5.04c-7.58-4.68-14.45-10.23-20.2-17.1c-4.32-5.17-9.16-9.98-12.9-15.54
		c-5.81-8.6-11.31-17.49-13.09-28.06c-0.64-3.81,0.94-6.47,3.68-8.91c4.29-3.82,8.17-8.13,12.67-11.65
		c2.41-1.89,5.77-2.56,8.71-3.78c2.57,0.4,5.14,0.81,7.71,1.21c5.16,3.37,10.5,6.49,15.42,10.18c4.12,3.08,3.9,3.38,8.01,0.14
		c0.15-0.11,0.29-0.23,0.43-0.36c3.25-2.93,4.64-3.11,8.12,0.04c4,3.62,7.54,7.89,10.66,12.31c4.61,6.54,4.15,8.25-2.09,13.21
		c-1.66,1.31-1.74,2.54-0.65,4.26c1.61,2.56,3.47,5.09,4.43,7.91c1.42,4.14,2.14,8.52,3.16,12.79
		C474.31,91.96,473.96,94.16,473.62,96.36z"/>
	<path class="st0" d="M351.53,86.05c-1.19,10.03,3.02,17.64,7.06,25.3c1.64,3.12,2.94,6.47,4.94,9.33c2.63,3.75,5.62,7.3,8.78,10.61
		c2.74,2.86,5.9,5.32,8.95,7.88c5.76,4.84,11.98,8.96,19.31,11.01c1.79,0.5,3.75,0.38,5.98,0.58c-0.53,0.63-0.81,1.09-1.2,1.4
		c-12.73,9.93-25.27,20.11-38.29,29.64c-5.47,4.01-11.9,6.74-17.99,9.87c-7.9,4.06-15.89,7.94-23.83,11.91
		c-4.37,2.18-8.72,4.38-13.08,6.57c-3.22,1.62-6.61,1.79-10.01,0.93c-1.91-0.48-3.27,0-4.8,1.15
		c-24.11,17.96-48.05,36.16-72.48,53.69c-20.42,14.65-41.48,28.4-62.14,42.73c-13.26,9.19-26.42,18.54-39.4,28.12
		c-8.76,6.47-13.78,15.74-17.54,25.75c-0.1,0.26-0.19,0.56-0.15,0.82c1.27,7.71-3.07,13.93-5.45,20.67
		c-2.2,6.25-4.4,12.5-6.38,18.82c-1.84,5.87-3.18,11.9-5.09,17.75c-2.73,8.32-5.68,16.57-8.73,24.78
		c-2.76,7.43-5.68,14.81-8.75,22.12c-1.67,3.96-3.6,7.85-5.82,11.52c-0.89,1.47-2.86,2.28-4.36,3.37c-0.21,0.15-0.51,0.18-0.76,0.3
		c-10.73,5.18-19.98,1.38-28.8-4.8c-2.69-1.88-5.14-4.18-5.71-7.55c-0.4-2.38-0.79-5.16,0.05-7.27
		c5.92-14.78,12.11-29.46,18.32-44.13c3.62-8.55,7.35-17.07,11.19-25.52c5.03-11.05,10.29-22,15.29-33.06
		c1.19-2.64,2.45-4.7,5.4-5.77c1.23-0.45,2.13-2.43,2.71-3.91c5.88-15.16,15.02-28.06,27.71-38.14
		c20.77-16.48,41.87-32.55,62.82-48.81c15.9-12.34,31.86-24.62,47.66-37.09c12.8-10.1,25.49-20.36,38.06-30.74
		c5.84-4.82,11.37-10.05,16.86-15.27c0.96-0.92,1.35-2.73,1.48-4.18c0.28-3.25,0.65-6.34,2.8-9.06
		c8.71-11.03,17.36-22.12,25.98-33.22c3.01-3.88,5.45-8.33,8.93-11.7c7.54-7.3,15.63-14.03,23.43-21.07
		c4.76-4.29,9.39-8.73,14.09-13.08C349.29,87.63,350.13,87.1,351.53,86.05z"/>
	<path class="st0" d="M388.43,53.11c0.99,11.25,6.13,20.54,12.35,29.68c4.67,6.87,9.91,13.2,15.45,19.23
		c6.37,6.93,13.55,13.16,22.56,16.65c2.28,0.88,4.77,1.22,7.69,1.94c-3.69,2.82-7.09,5.41-10.5,8.01c-0.22,0.17-0.52,0.26-0.68,0.47
		c-3.61,4.62-7.92,3.3-12.22,1.37c-8.51-3.81-15.58-9.62-21.87-16.37c-3.78-4.05-7.43-8.24-10.84-12.6
		c-5.91-7.57-10.98-15.65-13.71-24.97c-0.59-2.03-0.97-4.12-1.39-6.19c-1.04-5.1,2.65-7.89,5.58-10.89
		C383.09,57.12,385.8,55.26,388.43,53.11z"/>
	<path class="st0" d="M426.83,135.6c-5.7,4.3-10.99,8.34-16.35,12.26c-0.42,0.31-1.43-0.13-2.15-0.27
		c-11-2.17-19.08-9.09-26.73-16.61c-7.65-7.52-14.04-16.03-19.22-25.43c-3.41-6.19-6.02-12.64-6.12-19.84
		c-0.04-3.12,1.08-5.65,3.68-7.66c3.26-2.54,6.27-5.41,9.47-8.21c0.47,3.35,0.45,6.73,1.49,9.75c1.67,4.86,3.62,9.73,6.22,14.14
		c3.84,6.51,7.89,13,12.72,18.77c4.06,4.85,9.37,8.65,14.09,12.95c4.37,3.98,9.25,7.14,14.92,8.85
		C421.16,134.99,423.66,135.1,426.83,135.6z"/>
</g>
</svg>
