<?xml version="1.0" encoding="utf-8"?>
<!-- Generator: Adobe Illustrator 24.0.1, SVG Export Plug-In . SVG Version: 6.00 Build 0)  -->
<svg version="1.1" id="Camada_1" xmlns="http://www.w3.org/2000/svg" xmlns:xlink="http://www.w3.org/1999/xlink" x="0px" y="0px"
	 viewBox="0 0 500 500" style="enable-background:new 0 0 500 500;" xml:space="preserve">
<style type="text/css">
	.st0{fill:#FFFFFF;}
</style>
<g>
	<path class="st0" d="M494.65,309c-112.66,0-225.11,0-338.08,0c0.82-2.23,1.49-4.22,2.27-6.17c5.05-12.7,8.63-25.77,10.78-39.29
		c1.53-9.64,2.42-19.3,2.08-29.03c-0.61-17.54-4-34.47-12.01-50.26c-0.52-1.02-0.93-2.1-1.52-3.45c112.37,0,224.32,0,336.48,0
		C494.65,223.42,494.65,266.07,494.65,309z M193.42,278.93c81.05,0,161.84,0,242.58,0c0-22.87,0-45.52,0-68.17
		c-80.96,0-161.73,0-242.58,0C193.42,233.57,193.42,256.15,193.42,278.93z M463.14,230.99c7.83,0.68,14.58-6.42,14.56-14.05
		c-0.02-8.67-6.96-14.66-14.22-14.54c-8.35,0.13-14.39,5.93-14.56,14.52C448.79,223.5,454.47,231.55,463.14,230.99z M477.66,272.83
		c-0.14-8.32-5.86-13.92-13.01-14.29c-11.24-0.58-15.31,7.2-15.68,13.63c-0.47,8.22,5.91,15.03,14.25,15.06
		C470.99,287.26,477.58,281.53,477.66,272.83z"/>
	<path class="st0" d="M8.07,308.92c0-42.82,0-85.4,0-128.17c1.02-0.05,1.91-0.12,2.8-0.12c44.34,0,88.68,0.01,133.02-0.03
		c1.79,0,2.74,0.44,3.8,2.11c6.69,10.51,10.96,21.99,13.32,34.1c2.08,10.63,2.3,21.4,1.45,32.27c-0.8,10.24-2.53,20.28-5.79,29.92
		c-3.28,9.7-7.59,19.05-11.58,28.5c-0.31,0.73-1.58,1.49-2.4,1.49c-44.43,0.07-88.87,0.06-133.31,0.05
		C9.04,309.04,8.68,308.98,8.07,308.92z M135.75,244.71c-0.9-28.31-21.96-50.03-50.29-50.01c-28.75,0.02-50.08,22.42-50.06,49.99
		c0.03,29.18,22.8,50.36,50.28,50.21C113.89,294.75,135.03,272.72,135.75,244.71z"/>
	<path class="st0" d="M254.16,255.94c-3.4,0-6.79-0.04-10.19,0.01c-2.04,0.03-3.1-0.8-3.09-2.91c0.02-2.02,1.16-2.7,3-2.7
		c7.15,0.02,14.31,0.02,21.46,0.02c1.83,0,2.61,0.88,2.67,2.68c0.06,1.86-0.83,2.8-2.57,2.83c-3.76,0.07-7.53,0.02-11.29,0.02
		C254.16,255.92,254.16,255.93,254.16,255.94z"/>
	<path class="st0" d="M254.46,247.63c-3.58,0-7.16-0.04-10.74,0.01c-2.02,0.03-2.84-1.02-2.81-2.87c0.03-1.85,0.89-2.76,2.91-2.74
		c7.07,0.08,14.13,0.05,21.2-0.01c1.92-0.02,2.99,0.74,2.96,2.7c-0.03,1.95-0.9,2.99-3.06,2.92c-3.48-0.12-6.98-0.03-10.47-0.03
		C254.46,247.62,254.46,247.62,254.46,247.63z"/>
	<path class="st0" d="M415.06,258.65c3.58,0,7.17,0.02,10.75-0.01c1.78-0.01,2.71,0.58,2.67,2.58c-0.03,1.89-0.63,3.02-2.63,3.03
		c-7.26,0.03-14.52,0.09-21.78,0.04c-1.68-0.01-2.61-1.02-2.51-2.83c0.09-1.78,0.55-2.93,2.74-2.84
		C407.89,258.75,411.48,258.65,415.06,258.65z"/>
	<path class="st0" d="M254.19,272.54c-3.4,0-6.8-0.06-10.2,0.02c-2.08,0.05-3.07-0.84-3.1-2.89c-0.03-2,1.01-2.72,2.92-2.71
		c7.07,0.04,14.15,0.02,21.22-0.02c1.85-0.01,3.05,0.61,2.96,2.67c-0.08,1.93-0.89,3.02-3.06,2.95
		C261.36,272.45,257.77,272.53,254.19,272.54C254.19,272.53,254.19,272.54,254.19,272.54z"/>
	<path class="st0" d="M375.05,266.93c3.59,0,7.18,0.04,10.76-0.02c1.96-0.03,2.86,0.77,2.84,2.78c-0.03,1.95-0.9,2.85-2.84,2.85
		c-7.18-0.02-14.35-0.05-21.53-0.01c-2.1,0.01-2.76-1.26-2.74-2.95c0.02-1.64,0.81-2.7,2.74-2.65c3.59,0.09,7.18,0.03,10.76,0.03
		C375.05,266.95,375.05,266.94,375.05,266.93z"/>
	<path class="st0" d="M375.05,231c-3.5,0-7-0.05-10.5,0.02c-1.94,0.04-3.03-0.76-3.02-2.69c0.01-2.02,1.13-2.91,3.16-2.9
		c6.91,0.04,13.81,0.03,20.72,0.01c1.91-0.01,3.23,0.5,3.24,2.75c0.01,2.38-1.33,2.89-3.38,2.84c-3.4-0.08-6.81-0.02-10.22-0.02
		C375.05,231.01,375.05,231.01,375.05,231z"/>
	<path class="st0" d="M375.34,233.75c3.49,0,6.98,0.02,10.47-0.01c1.92-0.01,2.88,0.8,2.81,2.8c-0.06,1.92-0.91,2.8-2.88,2.79
		c-7.07-0.05-14.14-0.06-21.21-0.01c-1.94,0.01-3.01-0.81-2.99-2.7c0.01-1.91,0.89-2.98,3.06-2.89c3.58,0.13,7.16,0.04,10.74,0.04
		C375.34,233.76,375.34,233.75,375.34,233.75z"/>
	<path class="st0" d="M374.78,247.61c-3.49,0-6.98-0.07-10.47,0.03c-1.94,0.06-2.74-1-2.75-2.62c-0.01-1.63,0.54-2.99,2.69-2.97
		c7.26,0.06,14.52,0.04,21.77-0.01c1.93-0.01,2.63,0.97,2.59,2.73c-0.04,1.83-0.76,2.91-2.81,2.88c-3.67-0.06-7.35-0.02-11.02-0.02
		C374.78,247.62,374.78,247.61,374.78,247.61z"/>
	<path class="st0" d="M214.34,266.91c3.59,0,7.19,0.12,10.77-0.04c2.33-0.1,2.96,1.35,3,3.04c0.04,1.76-0.99,2.71-2.99,2.69
		c-7-0.09-14-0.06-21-0.02c-2,0.01-3.09-0.65-3.11-2.85c-0.02-2.26,1.1-2.82,3.11-2.77c3.41,0.09,6.82,0.02,10.22,0.02
		C214.34,266.95,214.34,266.93,214.34,266.91z"/>
	<path class="st0" d="M375.34,217.15c3.4,0,6.8,0.08,10.19-0.03c2.14-0.07,2.99,0.97,3.08,2.89c0.09,1.99-0.98,2.73-2.89,2.72
		c-7.16-0.05-14.33-0.07-21.49-0.01c-1.95,0.02-2.69-1.06-2.68-2.69c0.01-1.67,0.65-2.96,2.77-2.9c3.67,0.09,7.35,0.03,11.02,0.03
		C375.34,217.16,375.34,217.15,375.34,217.15z"/>
	<path class="st0" d="M414.89,242.02c3.59,0,7.18,0.03,10.77-0.01c1.89-0.03,2.89,0.58,2.83,2.69c-0.05,1.9-0.66,2.97-2.69,2.96
		c-7.27-0.02-14.54-0.08-21.81,0.02c-2.51,0.04-2.29-1.88-2.39-3.2c-0.1-1.37,0.61-2.54,2.52-2.47c3.58,0.14,7.18,0.04,10.77,0.04
		C414.89,242.04,414.89,242.03,414.89,242.02z"/>
	<path class="st0" d="M375.14,250.36c3.5,0,7.01,0.03,10.51-0.01c1.88-0.02,2.95,0.64,2.99,2.68c0.05,2.15-0.99,2.94-3.04,2.92
		c-6.91-0.05-13.83-0.04-20.74-0.03c-1.89,0-3.32-0.54-3.34-2.71c-0.02-2.24,1.24-2.95,3.38-2.87
		C368.31,250.46,371.72,250.37,375.14,250.36C375.14,250.36,375.14,250.36,375.14,250.36z"/>
	<path class="st0" d="M414.89,250.35c3.59,0,7.19,0.07,10.78-0.03c2.03-0.06,2.75,0.8,2.82,2.75c0.08,2.01-0.7,2.88-2.7,2.88
		c-7.18-0.02-14.37-0.06-21.55,0.04c-2.23,0.03-2.72-1.35-2.68-2.95c0.04-1.6,0.62-2.88,2.84-2.75
		C407.88,250.5,411.39,250.35,414.89,250.35z"/>
	<path class="st0" d="M214.62,258.66c3.5,0,6.99,0.1,10.48-0.04c2.02-0.08,2.97,0.87,3.05,2.65c0.09,2.18-1.31,3.01-3.34,3.01
		c-6.16-0.01-12.32-0.02-18.49-0.03c-0.92,0-1.84,0.02-2.76,0c-1.84-0.04-2.57-0.99-2.54-2.82c0.03-1.78,0.64-2.78,2.55-2.76
		c3.68,0.03,7.36,0.01,11.04,0.01C214.62,258.66,214.62,258.66,214.62,258.66z"/>
	<path class="st0" d="M254.15,258.67c3.49,0,6.98,0.03,10.47-0.02c2.06-0.02,3.4,0.74,3.36,2.95c-0.04,2.2-1.59,2.62-3.41,2.62
		c-6.8,0-13.59-0.02-20.39,0.01c-2.1,0.01-3.31-0.76-3.3-3.04c0.02-2.36,1.52-2.57,3.34-2.54
		C247.53,258.71,250.84,258.68,254.15,258.67z"/>
	<path class="st0" d="M375.19,264.21c-3.32,0-6.63-0.05-9.94,0.02c-2.1,0.04-3.71-0.51-3.71-2.9c0-2.28,1.47-2.73,3.53-2.7
		c6.72,0.1,13.44,0.05,20.17,0.02c1.81-0.01,3.37,0.13,3.39,2.52c0.01,2.39-1.2,3.18-3.49,3.09c-3.31-0.13-6.63-0.03-9.94-0.03
		C375.19,264.22,375.19,264.22,375.19,264.21z"/>
	<path class="st0" d="M414.74,272.54c-3.5,0-7-0.1-10.49,0.04c-2.08,0.08-2.56-1.1-2.56-2.71c0-1.6,0.16-3.01,2.52-2.97
		c7.27,0.12,14.54,0.06,21.81,0.01c1.75-0.01,2.54,0.62,2.46,2.42c-0.07,1.69-0.23,3.2-2.43,3.21
		C422.29,272.55,418.52,272.54,414.74,272.54z"/>
	<path class="st0" d="M214.34,255.93c-3.5,0-6.99-0.03-10.49,0.01c-1.95,0.02-2.83-0.82-2.82-2.81c0-1.99,0.88-2.79,2.83-2.78
		c7.18,0.03,14.36,0.03,21.53-0.05c1.95-0.02,2.68,1.08,2.76,2.67c0.08,1.78-0.85,2.96-2.78,2.98c-3.68,0.03-7.36,0.01-11.04,0.01
		C214.34,255.95,214.34,255.94,214.34,255.93z"/>
	<path class="st0" d="M294.55,247.61c-3.59,0-7.19-0.12-10.77,0.05c-2.2,0.1-2.76-1.08-2.76-2.81c-0.01-1.73,0.52-2.87,2.73-2.83
		c7.09,0.13,14.17,0.09,21.26,0.03c1.97-0.02,2.88,0.69,2.85,2.73c-0.03,1.95-0.85,2.86-2.82,2.84
		C301.55,247.58,298.05,247.61,294.55,247.61z"/>
	<path class="st0" d="M294.45,266.98c3.58,0,7.17,0.04,10.75-0.02c1.82-0.03,2.73,0.6,2.67,2.56c-0.06,1.81-0.49,3.02-2.61,3.01
		c-7.16-0.03-14.33-0.03-21.49,0c-2.09,0.01-2.73-1.34-2.76-3.02c-0.02-1.66,0.71-2.65,2.7-2.57
		C287.28,267.09,290.87,266.98,294.45,266.98z"/>
	<path class="st0" d="M294.54,231.01c-3.5,0-7-0.06-10.49,0.02c-2.07,0.05-3.08-0.86-3.03-2.89c0.04-1.91,1.07-2.7,2.99-2.69
		c7,0.05,13.99,0.03,20.99,0.02c1.89,0,2.86,0.76,2.88,2.8c0.03,2.07-0.96,2.77-2.84,2.75
		C301.53,230.99,298.03,231.01,294.54,231.01z"/>
	<path class="st0" d="M294.32,239.3c-3.49,0-6.98-0.04-10.47,0.02c-1.97,0.03-2.87-0.94-2.85-2.78c0.02-1.76,0.65-2.85,2.79-2.82
		c7.07,0.11,14.14,0.06,21.21,0.03c1.92-0.01,2.84,0.74,2.86,2.76c0.03,2.04-0.9,2.81-2.81,2.8
		C301.48,239.29,297.9,239.3,294.32,239.3z"/>
	<path class="st0" d="M294.56,250.37c3.5,0,7,0.02,10.5-0.01c1.97-0.02,2.78,0.89,2.81,2.85c0.02,1.93-0.95,2.69-2.68,2.69
		c-7.18,0.03-14.36,0.01-21.55,0.03c-2.07,0-2.66-1.25-2.63-3.02c0.04-1.78,0.93-2.61,2.78-2.58c3.59,0.07,7.18,0.02,10.77,0.02
		C294.56,250.36,294.56,250.37,294.56,250.37z"/>
	<path class="st0" d="M334.67,272.52c-3.41,0-6.81-0.03-10.22,0.02c-1.99,0.03-2.77-0.91-2.81-2.84c-0.04-2.04,0.87-2.75,2.84-2.74
		c7.09,0.06,14.17,0.08,21.26-0.02c1.98-0.03,2.54,0.74,2.55,2.6c0,1.88-0.45,3.02-2.57,2.99
		C342.03,272.48,338.35,272.51,334.67,272.52z"/>
	<path class="st0" d="M294.24,258.67c3.59,0,7.19,0.02,10.78-0.01c1.75-0.01,2.73,0.62,2.84,2.54c0.12,2.04-0.91,2.97-2.71,2.98
		c-7.1,0.06-14.19,0.06-21.29-0.01c-1.8-0.02-2.94-1.1-2.88-2.99c0.06-1.88,1.01-2.66,3.03-2.56
		C287.41,258.8,290.83,258.68,294.24,258.67z"/>
	<path class="st0" d="M335.17,258.68c3.5,0,7,0.06,10.5-0.02c1.86-0.04,2.66,0.56,2.62,2.55c-0.03,1.88-0.5,3.02-2.58,3.02
		c-7.09-0.01-14.18,0.04-21.27-0.03c-1.72-0.02-2.91-0.81-2.8-2.9c0.11-2.06,1.17-2.65,3.03-2.62
		C328.17,258.72,331.67,258.68,335.17,258.68z"/>
	<path class="st0" d="M85.54,202.09c25.09,0.01,42.95,20.25,42.82,42.7c-0.14,24.83-20.32,43.31-44.16,42.85
		c-21-0.4-43.42-19.1-41.44-46.3C44.24,220.95,62.03,201.72,85.54,202.09z M120.84,244.78c-0.67-20.14-15.97-35.58-35.92-35.21
		c-19.95,0.37-34.72,15.56-34.69,35.32c0.04,20.06,15.61,35.33,35.47,35.2C105.71,279.95,120.2,264.46,120.84,244.78z"/>
</g>
</svg>
