<?xml version="1.0" encoding="utf-8"?>
<!-- Generator: Adobe Illustrator 24.0.1, SVG Export Plug-In . SVG Version: 6.00 Build 0)  -->
<svg version="1.1" xmlns="http://www.w3.org/2000/svg" xmlns:xlink="http://www.w3.org/1999/xlink" x="0px" y="0px"
	 viewBox="0 0 1920 309" style="enable-background:new 0 0 1920 309;" xml:space="preserve">
<style type="text/css">
	.st0{fill:none;}
	.st1{fill:#239929;}
	.st2{fill:#FFFFFF;}
</style>
<g id="Camada_2">
</g>
<g id="Camada_1">
	<path class="st0" d="M16.08,155.46c0-48.46,0-96.92,0-145.38c630.33,0,1260.67,0,1891,0c0,48.1,0,96.2,0,144.29
		c-1.66-11.46-7.88-20.41-15.73-29.72c0,5.32,0.16,9.42-0.02,13.49c-1.49,33.28-9.27,65.3-19.84,96.7
		c-1.33,3.97-0.24,5.66,2.94,7.16c5.9,2.77,20.22-4.22,22.08-11.12c2.88-10.71,5.73-21.46,7.92-32.32
		c1.48-7.37,1.81-14.98,2.65-22.49c0,40.5,0,81.01,0,121.51c-585.85,0-1171.7,0-1757.56,0c23.95-4.93,36.84-21.04,43.59-43.26
		c4.73-15.58,5.99-31.53,4.6-47.72c-0.35-4.03-0.91-8.05-1.42-12.42c-3.8,0.57-6.77,1.02-9.1,1.37c0,10.28,0.23,20.02-0.05,29.74
		c-0.46,15.9-1.34,31.4-10.95,45.53c-12.68,18.64-31.51,23.43-50.47,11.07c-10.35-6.74-18.92-15.53-24.62-26.27
		c-7.4-13.98-14.13-28.42-19.81-43.18c-9.8-25.46-13.72-52.33-16.33-79.34c-2.12-21.93-4.35-43.92-1.11-65.96
		c1.77-12.04,4.36-23.88,11.84-33.9c5.88-7.88,13.46-11.53,23.62-9.39c8.05,1.7,15.43,4.86,20.78,10.87
		c6.31,7.09,11.56,15.13,17.21,22.8c0.91,1.23,1.54,2.66,2.39,4.16c3.18-3.03,6.02-5.73,8.88-8.46
		c-9.37-15.09-19.74-28.67-35.44-37.07C92.04,4.88,74.15,10.54,63.42,31.84c-6.27,12.44-9.02,25.87-10.41,39.59
		c-2.3,22.76-1.44,45.51,1.09,68.19c4.57,40.96,15.36,80.07,35.71,116.19c11.57,20.52,26.75,36.75,51.04,41.78
		c-41.5,0-82.99,0-124.76,0c0-40.14,0-80.28,0-120.43c0.29,1.75,0.75,3.5,0.86,5.27c0.93,15.76,3.96,30.99,9.01,46.04
		c2.52,7.5,8.06,11.25,13.59,14.78c2.48,1.58,7.93-0.17,11.38-1.78c3.91-1.83,0.49-5.04-0.24-7.48
		c-10.37-34.64-20.01-69.4-18.57-106.11c0.01-0.36-0.44-0.75-0.87-1.43C23.86,135.16,17.74,144.13,16.08,155.46z M728.63,182.58
		c7.05,0,13.05-0.52,18.92,0.13c7.17,0.8,11.55-1.26,13.4-8.61c0.91-3.62,3.33-6.84,4.49-10.42c1.17-3.62,3.28-4.44,6.84-4.42
		c22.59,0.15,45.18,0.08,67.78,0.06c1.84,0,3.67-0.23,6.02-0.38c-5.18-10.18-9.94-19.54-14.79-29.09c8.59,0,16.24,0,24.37,0
		c0,18.09,0,35.71,0,53.46c8.71,0,16.91,0,25.65,0c0-17.64,0-34.93,0-52.71c10.97,0,21.42,0.18,31.85-0.1
		c3.87-0.1,6.17,1.05,8.32,4.34c9.59,14.66,19.45,29.15,29.31,43.63c1.04,1.52,2.72,3.72,4.1,3.71c8.57-0.07,17.13-0.68,26.74-1.16
		c-12.28-17.19-23.95-33.53-35.72-49.99c4.44-1.28,8.33-2.15,12.04-3.52c24.14-8.9,30.4-45.88,10.52-62.36
		c-7.62-6.31-16.64-9.42-26.52-9.46c-28.2-0.11-56.39-0.04-84.59-0.03c-1.39,0-2.78,0.17-4.17,0.26c0,8.73,0,17.08,0,25.68
		c26.5,0,52.52,0,78.54,0c3.8,0,7.6-0.18,11.38,0.06c5.87,0.36,9.44,5.7,9.05,13.14c-0.37,7.13-2,8.67-9.24,8.67
		c-40.12,0-80.25-0.04-120.37,0.08c-3.54,0.01-5.42-0.96-7.05-4.25c-7.6-15.33-15.53-30.49-23.24-45.51c-12.36,0-24.4,0-36.62,0
		c0,9.43,0,18.54,0,28.17c7.49,0,14.64,0,22.82,0C761.75,115.69,745.46,148.59,728.63,182.58z M1237.13,49.35
		c-9.53,0-18.69-0.16-27.85,0.03c-21.3,0.44-42.62,0.62-63.88,1.79c-10.45,0.58-20.02,4.99-27.17,13.03
		c-7.05,7.93-9.67,17.25-8.48,28.04c0.96,8.71,3.92,15.98,10.13,22.08c9.97,9.8,22.73,12.16,35.78,12.94
		c11.17,0.67,22.42-0.03,33.62,0.32c5.71,0.18,11.48,0.93,17.07,2.14c5.79,1.25,6.5,6.17,6.29,11.12c-0.2,4.83-2.43,8.43-7.43,9.33
		c-5.31,0.95-10.7,1.98-16.07,2.03c-23.5,0.21-47.01,0.09-70.51,0.08c-1.91,0-3.82,0-6.23,0c0,7.6,0.28,14.45-0.1,21.27
		c-0.27,4.85,1.01,6.56,6.23,6.47c19.16-0.33,38.34-0.47,57.49-0.01c12.17,0.3,24.04-1.3,35.59-4.51
		c23.56-6.55,32.58-26.56,25.31-49.65c-4.6-14.59-16.7-21.31-30.73-23.02c-14.82-1.81-29.9-1.34-44.86-2.09
		c-5.72-0.29-11.5-0.78-17.09-1.94c-5.65-1.17-8.1-4.93-8.06-10.49c0.04-6.4,2.13-9.17,8.58-10.54c3.86-0.82,7.84-1.49,11.77-1.51
		c24.77-0.16,49.54-0.11,74.31-0.16c2.09,0,4.18-0.25,6.28-0.39C1237.13,66.71,1237.13,58.31,1237.13,49.35z M261.24,54.59
		c-26.92,0-53.11-0.28-79.3,0.14c-10.24,0.17-20.41,1.91-29.65,7.17c-12.76,7.26-18.86,17.73-18.42,32.72
		c0.41,14.08,6.53,24.19,18.38,30.94c8.61,4.9,18.32,6.58,28.09,6.95c11.19,0.43,22.41-0.06,33.61,0.27
		c5.53,0.16,11.1,0.95,16.52,2.07c5.85,1.21,6.58,6.12,6.4,11.04c-0.19,5.02-2.49,8.73-7.83,9.55c-5.51,0.84-11.07,1.92-16.61,1.98
		c-23.13,0.22-46.26,0.08-69.4,0.1c-2.07,0-4.14,0.21-6.13,0.31c0,9.17,0,17.6,0,26.62c2.24,0,4.18,0,6.12,0
		c21.14,0,42.3,0.39,63.43-0.17c9.98-0.26,20.22-1.19,29.79-3.82c22.96-6.31,32.21-26.02,24.94-49.34
		c-4.48-14.39-16.34-21.24-30.13-22.99c-15.15-1.93-30.6-1.46-45.91-2.26c-5.72-0.3-11.49-0.8-17.08-1.99
		c-5.43-1.16-7.9-5.26-7.67-10.78c0.26-6.19,2.3-8.87,8.42-10.11c4.04-0.82,8.2-1.47,12.31-1.5c24.21-0.16,48.43-0.09,72.65-0.14
		c2.45,0,4.91-0.26,7.46-0.4C261.24,71.94,261.24,63.53,261.24,54.59z M1641.59,79.99c0.96,0.17,1.64,0.38,2.33,0.4
		c29.82,0.79,59.64,1.53,89.45,2.4c3.01,0.09,6.26,0.34,8.95,1.53c16.34,7.23,22.91,18.6,21.61,36.63c-0.13,1.8-0.07,3.61-0.11,5.42
		c-0.18,7.8-3.03,14.46-8.78,19.73c-5.19,4.76-10.93,7.68-18.48,7.42c-14.4-0.48-28.82-0.14-43.82-0.14c0-8.49,0-16.41,0-24.33
		c0-8.04,0-16.09,0-24.05c-9.51,0-18.06,0-26.6,0c0,25.29,0,50.14,0,75.36c2.34,0,4.3,0.03,6.27,0c22.05-0.35,44.11-0.99,66.16-0.97
		c16.73,0.01,29.91-7.05,39.5-19.95c13.58-18.27,17.53-39.16,11.74-61.16c-6.96-26.42-30.43-43.72-57.69-43.72
		c-28.2,0-56.41,0-84.61,0c-1.93,0-3.86,0-5.92,0C1641.59,63.39,1641.59,71.6,1641.59,79.99z M1603.89,259.27
		c-3.55-7.38-6.71-13.94-10.32-21.44c-4.43,8.3-8.32,15.58-12.84,24.04c-3.1-16.92-5.93-32.33-8.76-47.75
		c-0.33,0.03-0.65,0.06-0.98,0.09c-5.24,15.95-10.48,31.9-15.96,48.6c-1.7-2.76-2.88-4.67-4.61-7.48c-4.13,8.59-11.26,8-18.43,7.96
		c-26.04-0.14-52.07-0.26-78.11,0.1c-5.78,0.08-8.13-1.53-9.36-7.2c-2.03-9.33-5.05-18.45-7.66-27.65
		c-0.38,0.03-0.76,0.06-1.13,0.09c-1.39,4.9-2.77,9.8-4.6,16.27c-3.5-18.41-6.69-35.23-9.89-52.06c-0.31,0.05-0.62,0.11-0.93,0.16
		c-4.01,19.75-8.01,39.51-12.02,59.26c-0.37-0.05-0.74-0.09-1.11-0.14c-3.06-8.25-6.11-16.51-9.54-25.75
		c-3.46,8.83-6.57,16.76-10.24,26.09c-1.6-5.11-2.72-8.72-4.14-13.27c-3.66,4.42-6.52,8.33-9.87,11.77
		c-3.27,3.36-4.93,8.68-10.94,10.02c0-11.75,0.06-22.77-0.02-33.78c-0.06-8.35-5.97-14.17-14.35-14.22
		c-9.94-0.06-19.89-0.08-29.83,0.01c-7.75,0.07-13.23,5.57-13.27,13.3c-0.07,11.39-0.05,22.78-0.01,34.17
		c0.03,8.96,4.32,13.24,13.33,13.25c15.18,0.02,30.39-0.49,45.55,0.11c8.12,0.32,14.49-0.78,17.66-9.14
		c0.09-0.23,0.62-0.28,1.15-0.5c3.11,4.58,6.24,9.2,9.78,14.41c2.59-5.02,4.9-9.5,7.74-15c2.61,10.54,4.9,19.82,7.2,29.11
		c0.39-0.01,0.78-0.02,1.17-0.03c3.53-14.27,7.05-28.53,10.98-44.43c2.7,13.18,5.07,24.74,7.78,37.95
		c3.35-7.01,6.01-12.55,9.43-19.72c2.4,10.02,9.13,8.36,15.12,8.36c27.48,0.01,54.96,0.02,82.45-0.01
		c6.38-0.01,13.14,1.43,17.74-5.05c3.38,3.14,6.23,5.78,9.3,8.63c2.17-4.44,4.08-8.35,6.51-13.32c2.71,10.57,5.06,19.71,7.73,30.13
		c6.22-11.84,11.82-22.51,17.97-34.23c2.81,8.12,5.13,14.86,7.76,22.48c2.8-6.17,5.17-11.39,7.83-17.23
		c3.63,6.62,6.78,12.38,10.18,18.57c1.12-1.37,1.98-2.1,2.42-3.02c2.35-4.95,6.26-5.88,11.47-5.82c23.5,0.27,47.01,0.12,70.51,0.12
		c1.89,0,3.78,0,5.56,0c0-4.26,0-7.62,0-11.41c-2.29,0-4.25,0-6.21,0c-25.86,0-51.71-0.21-77.56,0.16
		c-5.89,0.08-8.9-1.63-10.37-7.26c-1.01-3.84-2.94-7.44-4.79-11.97C1608.07,250.45,1606.23,254.34,1603.89,259.27z M586.71,253.37
		c9.56,0,18.73,0.09,27.89-0.07c1.79-0.03,4.47-0.47,5.2-1.66c4.17-6.78,7.83-13.88,7-22.28c-0.94-9.52-6.14-14.22-15.67-14.22
		c-12.29,0-24.58-0.01-36.88,0.01c-1.55,0-3.1,0.2-5,0.33c0,14.49,0,28.53,0,42.62c-7.12,1.37-12.77,0.74-17-5.94
		c-3.31-5.22-7.87-9.65-12.46-15.13c-1.37,4.62-2.45,8.24-3.99,13.4c-3.73-9.48-6.84-17.39-10.29-26.17
		c-3.47,9.32-6.56,17.61-9.65,25.9c-0.35-0.04-0.69-0.09-1.04-0.13c-3.99-19.73-7.98-39.46-11.97-59.19
		c-0.34,0.01-0.67,0.03-1.01,0.04c-3.17,16.79-6.35,33.58-9.79,51.79c-1.89-6.43-3.35-11.41-4.81-16.39
		c-3.72,9.77-6.67,19.25-8.9,28.9c-1.12,4.85-3.29,6.06-8.09,6.01c-26.57-0.25-53.15-0.32-79.72,0.01
		c-7.05,0.09-13.21-0.5-17.6-6.67c-0.11-0.15-0.61-0.02-1.08-0.02c-1.11,1.78-2.27,3.65-3.77,6.07
		c-5.51-16.77-10.75-32.72-15.98-48.67c-0.32,0.04-0.64,0.08-0.96,0.12c-2.83,15.46-5.66,30.92-8.72,47.59
		c-4.61-8.53-8.55-15.82-12.9-23.88c-3.67,7.63-6.78,14.12-10.21,21.25c-2.29-4.67-4.27-8.71-6.58-13.44
		c-2.14,5.22-4.22,9.45-5.6,13.91c-1.22,3.94-3.27,5.18-7.39,5.15c-26.57-0.19-53.15-0.1-79.72-0.1c-2.07,0-4.14,0-6.18,0
		c0,4.25,0,7.61,0,11.41c2.26,0,4.21,0,6.17,0c21.87,0,43.75,0.25,65.62-0.14c7.45-0.13,13.99,0.11,17.51,7.94
		c0.08,0.18,0.64,0.15,1.11,0.25c3.13-5.75,6.28-11.53,9.82-18.04c2.66,6.02,4.96,11.24,7.72,17.48c2.71-7.82,5.08-14.66,7.83-22.58
		c6.21,11.82,11.81,22.49,17.97,34.22c2.72-10.57,5.06-19.68,7.78-30.25c2.54,5.33,4.42,9.25,6.47,13.56
		c3.39-3.2,6.22-5.87,9.63-9.09c3.59,6.41,9.28,5.41,14.67,5.41c28.56,0,57.12-0.07,85.68,0.05c6.04,0.02,12.07,0.7,14.61-8.06
		c3.41,6.83,6.18,12.38,9.52,19.08c2.66-13.07,4.99-24.53,7.33-36c0.25,0,0.5-0.01,0.74-0.01c3.56,14.32,7.12,28.64,10.68,42.97
		c0.37-0.07,0.74-0.14,1.11-0.21c2.31-9.32,4.61-18.64,7.17-29c2.87,5.51,5.18,9.95,7.75,14.88c3.53-5.18,6.71-9.86,10.19-14.96
		c1.24,1.83,2.25,2.9,2.79,4.18c2.03,4.78,5.39,6.55,10.64,5.99c4.79-0.51,9.68-0.11,14.37-0.11c1.29,4.8,8.56,6.06,17.97,3.42
		C586.71,268.01,586.71,261.02,586.71,253.37z M394.93,82.13c55.06,0,109.68,0,164.81,0c0,33.84,0,66.99,0,100.13
		c10.38,0,20.24,0,30.12,0c0-43.03,0-85.72,0-128.46c-65.18,0-129.95,0-194.94,0C394.93,63.08,394.93,72.05,394.93,82.13z
		 M264.53,118.29c0.02,35.58,28.49,64.24,63.93,64.29c34.38,0.04,65.03-26.9,64.85-64.79c-0.18-37.96-30.84-64.31-64.81-64.29
		C292.84,53.51,264.51,82.24,264.53,118.29z M1370.05,115.64c0.05-35.59-28.08-63.6-63.16-64.51c-33.43-0.87-65.71,25.88-65.74,64.3
		c-0.03,35.69,27.91,64.6,64.44,64.7C1343.21,180.22,1370.39,149.57,1370.05,115.64z M1473.27,53.65c0,2.08,0,3.67,0,5.27
		c0,22.78,0.18,45.56-0.15,68.34c-0.06,4.3-1.23,9.12-3.43,12.76c-10.68,17.64-25.52,21.61-42.02,18.73
		c-17.56-3.06-29.2-18-29.18-35.64c0.02-21.15,0.01-42.31,0.01-63.46c0-1.91,0-3.83,0-5.82c-9.47,0-18.22,0-27.35,0
		c0,2.29,0,4.25,0,6.2c0,19.53-0.21,39.05,0.12,58.57c0.11,6.37,0.94,12.91,2.65,19.04c11.96,42.92,61.55,61.28,98.29,36.08
		c17.3-11.86,27.44-28.22,27.04-50.2c-0.38-21.33-0.08-42.67-0.08-64c0-1.91,0-3.82,0-5.88
		C1490.32,53.65,1482.22,53.65,1473.27,53.65z M740.6,74.5c-23.03-26.78-65.13-27.92-91.59-3.19
		c-26.32,24.59-26.76,67.49-0.66,92.77c27.7,26.83,66.52,21.42,85.36,3.45c-4.92-6.5-9.86-13.03-14.81-19.57
		c-17.29,13.86-41.7,10.47-54.55-3.66c-12.39-13.63-12.63-37.87-0.97-51.29c14.78-17.02,33.9-18.13,58.79-2.54
		C728.17,85.27,734.27,79.99,740.6,74.5z M1726.94,193.64c-2.46,14.02-2.65,27.52-0.91,41.02c2.16,16.74,6.85,32.67,18.3,45.57
		c11.34,12.78,25.73,18.53,42.83,15c13.88-2.87,24.29-11.58,33.44-21.87c10.83-12.18,17.89-26.68,24.31-41.42
		c21.11-48.48,28.36-99.45,26.03-151.92c-0.78-17.56-3.71-34.9-12.43-50.61c-10.07-18.14-25.44-23.39-44.51-15.13
		c-18.09,7.83-29.3,22.67-39.44,38.89c3.18,3.03,5.97,5.69,8.53,8.14c4.42-6.73,8.16-13.12,12.6-19.01
		c5.39-7.15,12.09-12.9,20.56-16.32c15.34-6.19,26.72-2.2,34.56,12.31c1.62,3,3.02,6.18,4.1,9.41c4.43,13.33,6.76,27.18,5.85,41.09
		c-1.67,25.39-3.61,50.82-7.04,76.02c-4.05,29.7-13.43,58-28.03,84.32c-7.72,13.92-17.56,26.21-31.88,33.93
		c-12.43,6.7-25.16,7.27-36.59-1.93c-9.01-7.25-16.3-16.73-18.02-28.18c-2.15-14.37-2.05-29.08-2.78-43.65
		c-0.24-4.79-0.04-9.61-0.04-14.47C1733.27,194.43,1730.44,194.08,1726.94,193.64z M1535.18,107.13
		c17.68,12.97,34.31,25.18,51.75,37.98c0-8.76-0.22-16.47,0.09-24.17c0.16-3.92-1.34-6.24-4.37-8.49
		c-20.44-15.16-40.76-30.49-61.12-45.76c-4.68-3.51-9.36-7.01-14.45-10.83c0,42.71,0,84.5,0,126.36c9.51,0,18.61,0,28.1,0
		C1535.18,157.37,1535.18,132.88,1535.18,107.13z M498.67,104.21c-34.52,0-68.56,0-102.52,0c0,26.32,0,52.22,0,78.05
		c9.02,0,17.61,0,26.77,0c0-16.29,0-32.27,0-48.85c25.58,0,50.59,0,75.75,0C498.67,123.42,498.67,114.06,498.67,104.21z
		 M1608.9,53.85c-0.12,1.94-0.29,3.52-0.31,5.1c-0.35,26.39-0.72,52.77-1,79.16c-0.08,7.21-2.04,15.49,0.82,21.34
		c2.87,5.84,10.67,9.29,16.36,13.72c3.44,2.68,6.98,5.24,11.04,8.27c0-15.02,0.08-28.92-0.02-42.81
		c-0.18-26.39-0.54-52.78-0.64-79.16c-0.02-4.12-1.18-5.87-5.52-5.69C1622.96,54.05,1616.28,53.85,1608.9,53.85z M748.71,250.75
		c7.18-5.61,10.81-9.91,10.36-15.64c-0.49-6.12-2.54-12.14-4.17-18.13c-0.85-3.14-3.12-4.18-6.55-4.11
		c-11.37,0.24-22.74,0.09-34.11,0.09c-3.35,0-6.7,0-9.92,0c0,20.69,0,40.61,0,60.37c5.57,0,10.72,0,16.31,0c0-7.19,0-13.99,0-22.82
		c3.76,1.86,6.83,2.61,8.83,4.5c5.36,5.08,10.22,10.69,15.38,16c1.07,1.1,2.52,2.51,3.85,2.56c6.41,0.27,12.83,0.12,20.41,0.12
		C761.78,265.46,755.25,258.11,748.71,250.75z M1195.49,273.71c14.18,0,27.86,0.04,41.55-0.07c1.3-0.01,2.62-0.96,3.88-1.57
		c9.74-4.75,13.31-13.59,15.77-23.34c4.3-17.04-9.7-37.15-27.85-35.84c-7.19,0.52-14.45,0.08-21.67,0.08c-3.88,0-7.76,0-11.68,0
		C1195.49,233.52,1195.49,253.2,1195.49,273.71z M636.78,273.37c17.84,0,35.26,0,52.74,0c0-5.51,0-10.67,0-16.42
		c-11.95,0-23.63,0-35.48,0c0-2.42,0-4.25,0-6.72c7.41,0,14.36,0,21.17,0c0-4.53,0-8.41,0-12.91c-7.36,0-14.31,0-21.35,0
		c0-2.74,0-4.84,0-7.73c12.08,0,23.87,0,35.62,0c0-5.95,0-11.1,0-16.22c-17.75,0-35.17,0-52.7,0
		C636.78,233.46,636.78,253.14,636.78,273.37z M852.42,252.46c7.36,0,14.45,0,21.46,0c0-4.58,0-8.31,0-12.65c-7.24,0-14.2,0-21.45,0
		c0-2.86,0-5.11,0-7.94c12.01,0,23.69,0,35.53,0c0-5.87,0-11.16,0-16.47c-17.67,0-34.96,0-52.45,0c0,20.21,0,40.15,0,60.49
		c8.97,0,17.61,0,26.25,0c8.78,0,17.56,0,26.25,0c0-5.96,0-11.13,0-16.87c-12,0-23.67,0-35.6,0
		C852.42,256.72,852.42,255.01,852.42,252.46z M1856.09,89.8c-24.96,10.11-48.69,42.15-53.04,70.1
		c-4.78,30.67,11.63,64.59,23.58,75.75c5.15-7.33,6.6-14.14,1.79-23.13c-8.23-15.38-11.23-32.38-8.64-49.89
		c3.29-22.31,15.22-39.38,32.81-52.92c1.51-1.16,3.18-3.12,3.35-4.84C1856.39,100.05,1856.09,95.16,1856.09,89.8z M96.77,237.06
		c19.75-27.63,30.63-56.31,20.24-89.25c-8.2-26-25.12-45.2-49.93-58.62c0,4.59,0.3,8.04-0.07,11.42c-0.54,4.82,1.38,7.65,5.21,10.66
		c19.59,15.38,31.27,35.14,31.88,60.61c0.4,16.68-4.51,32.01-11.8,46.76c-0.88,1.77-1.61,4.24-1.07,5.96
		C92.45,228.5,94.51,232.14,96.77,237.06z M941.15,247.62c-0.11,2.44-0.18,4.04-0.26,5.64c-0.28,5.56-2.43,7.69-8.13,7.8
		c-5.05,0.1-10.11,0.06-15.17,0c-4.79-0.06-7.41-2.53-7.48-7.35c-0.09-5.78-0.1-11.56,0-17.33c0.09-4.81,2.71-7.26,7.5-7.33
		c3.61-0.05,7.22-0.02,10.83-0.02c11.37,0,11.57,0.2,12.55,11.63c0.04,0.46,0.52,0.89,0.79,1.31c11.92-4.52,11.93-4.53,11.67-14.59
		c-0.19-7.48-4.71-12.14-12.22-12.22c-11.01-0.12-22.03-0.13-33.05,0.01c-7,0.09-12.03,4.9-12.15,11.91
		c-0.21,12.09-0.22,24.2,0.04,36.29c0.14,6.61,6.14,12.37,12.64,12.46c10.83,0.15,21.67,0.14,32.5-0.01
		c5.6-0.08,11.6-5.24,12.04-10.58c0.41-4.98,0.09-10.02,0.09-15.07C949.17,249.31,945.51,248.54,941.15,247.62z M1120.45,275.88
		c-11.08-20.43-21.8-39.85-32.09-59.49c-1.93-3.68-4.42-3.51-7.46-3.43c-2.95,0.08-5.58-0.5-7.55,3.3
		c-8.54,16.52-17.6,32.78-26.46,49.14c-1.76,3.25-3.5,6.52-5.49,10.22c6.77,0,12.84,0,18.8,0c6.08-14.47,6.12-13.8,21.55-14.69
		c9.95-0.58,16.58,1.64,19.33,11.84c0.34,1.27,2.31,2.88,3.62,2.97C1109.69,276.09,1114.72,275.88,1120.45,275.88z M1162.94,213.19
		c-0.1,1.29-0.22,2.16-0.22,3.04c-0.03,11.75,0.01,23.5-0.08,35.24c-0.04,5.86-2.41,8.2-8.2,8.31c-4.16,0.08-8.31,0.03-12.47,0.02
		c-8.39-0.02-10.24-1.83-10.25-10.1c-0.02-12.06,0-24.11,0-36.3c-5.16,0-9.71,0-14.42,0c0,16.33-0.12,32.23,0.06,48.12
		c0.08,6.87,5.7,12.1,12.69,12.17c11.02,0.11,22.08,0.49,33.06-0.23c3.59-0.24,7.14-3.3,10.36-5.57c1.26-0.89,2.18-3.13,2.19-4.77
		c0.16-16.57,0.1-33.13,0.1-49.92C1171.35,213.19,1167.44,213.19,1162.94,213.19z M772.5,274.49c5.78,0,10.95,0,16.75,0
		c0-7.24,0-14.19,0-21.73c7.59,0,14.54,0,21.73,0c0-4.49,0-8.37,0-12.87c-7.21,0-14.16,0-21.45,0c0-2.83,0-5.05,0-8.05
		c12.11,0,23.89,0,35.6,0c0-5.96,0-11.12,0-16.34c-17.72,0-35.12,0-52.62,0C772.5,235.31,772.5,254.76,772.5,274.49z M956.93,230.5
		c7,0,13.4,0,20.42,0c0,15.4,0,30.26,0,45.02c5.79,0,10.93,0,16.66,0c0-15.24,0-30.12,0-45.5c8.1,0,15.6,0,23.18,0
		c0-5.86,0-11.2,0-16.76c-20.19,0-40.11,0-60.26,0C956.93,218.9,956.93,224.24,956.93,230.5z M116.24,254.68
		c-0.46,4.01-1.13,7.53-1.14,11.05c-0.01,1.49,0.97,3.5,2.16,4.41c7.68,5.89,16.02,10.9,25.83,11.55c4.78,0.32,10.32-0.6,14.46-2.88
		c8.7-4.81,15.02-12.1,18.2-21.96c4.6-14.24,4.79-28.77,3.65-43.43c-0.48-6.22-1.46-12.39-2.26-18.95c-3.91,0.56-7.02,1-10.28,1.47
		c0.29,1.65,0.47,2.71,0.65,3.77c3.27,19.27,2.55,38.15-5.62,56.26c-3.91,8.67-10.6,12.5-20.02,10.54
		c-5.38-1.12-10.59-3.39-15.66-5.64C122.83,259.35,119.84,256.96,116.24,254.68z M1807.4,256.23c-9.18,3.65-17.57,7.89-26.45,10.25
		c-8.93,2.37-16.08-1.85-19.46-10.37c-2.65-6.66-5.54-13.63-6.06-20.64c-0.96-13.01-0.28-26.15-0.28-39.72
		c-2.32-0.31-5.46-0.74-9.13-1.23c-0.81,6.73-1.8,12.96-2.28,19.23c-1.15,15.03-1.46,30.16,4.29,44.39
		c8.18,20.23,25.74,31.08,48.24,18.36c12.45-7.04,12.61-6.8,10.81-20.81C1807.06,255.53,1806.93,255.39,1807.4,256.23z
		 M1834.34,281.8c1.1-0.97,2.12-1.72,2.94-2.64c1.69-1.88,3.37-3.78,4.87-5.81c11.79-15.88,19.16-33.9,24.7-52.67
		c13.9-47.05,17.69-95.38,17.32-144.15c-0.02-2.96-1.86-5.9-2.86-8.84c-0.53,0.09-1.06,0.18-1.59,0.26c-0.21,2.21-0.6,4.42-0.6,6.63
		c0.04,40.79-3.49,81.2-13.3,120.88c-6.15,24.85-14.4,48.97-30.27,69.48C1831.01,270.8,1829.48,275.45,1834.34,281.8z M43.53,67.94
		c-0.67-0.01-1.33-0.02-2-0.02c-0.89,3.19-2.51,6.38-2.55,9.58c-0.48,39.67,2.47,79.07,10.82,117.92
		c5.48,25.52,13.08,50.34,27.47,72.49c3.28,5.04,7.36,9.56,11.07,14.33c1.53-4.61,6.56-7.83,2.85-12.36
		c-14.36-17.49-23.17-37.77-29.59-59.18c-13.24-44.18-17.41-89.56-17.54-135.45C44.04,72.8,43.71,70.37,43.53,67.94z
		 M1269.54,212.12c0,20.74,0,41.02,0,61.16c6.23,0,12.07,0,17.78,0c0-20.6,0-40.76,0-61.16
		C1281.32,212.12,1275.62,212.12,1269.54,212.12z M610.06,53.85c0,9.81,0,19.38,0,28.97c9.34,0,18.26,0,27.28,0
		c0-9.92,0-19.51,0-29.32c-8.66,0-16.92-0.01-25.19,0.01C611.48,53.52,610.8,53.73,610.06,53.85z M1840.17,62.35
		c5.5-5.7,6.72-10.58,4.18-15.41c-4.82-9.16-17.54-13.61-26.21-8.13c-11.13,7.04-20.75,16.04-29.32,26.49
		c2.22,2.6,4.15,4.84,6.41,7.48c6.75-9.84,14.97-17.02,24.8-22.35c6.82-3.7,13.12-1.68,16.67,5.26
		C1837.81,57.87,1838.96,60.02,1840.17,62.35z M82.9,62.57c1.21-2.32,2.26-4.18,3.18-6.1c3.79-7.89,10.41-10.46,17.62-5.47
		c8.79,6.07,16.8,13.25,25.56,20.28c1.03-1.24,2.94-3.54,5.75-6.91c-9.31-8.13-18.2-16.25-27.48-23.89
		c-5.91-4.87-15.95-4.76-22.42-0.52C76.19,45.8,75.17,53.57,82.9,62.57z"/>
	<path class="st1" d="M140.85,297.59c-24.3-5.03-39.48-21.26-51.04-41.78c-20.36-36.12-31.14-75.23-35.71-116.19
		c-2.53-22.68-3.39-45.43-1.09-68.19c1.39-13.72,4.14-27.15,10.41-39.59c10.74-21.29,28.63-26.96,49.72-15.68
		c15.7,8.39,26.07,21.98,35.44,37.07c-2.86,2.73-5.69,5.42-8.88,8.46c-0.85-1.5-1.49-2.93-2.39-4.16
		c-5.65-7.67-10.9-15.71-17.21-22.8c-5.35-6.01-12.72-9.17-20.78-10.87c-10.15-2.14-17.73,1.5-23.62,9.39
		c-7.48,10.02-10.07,21.86-11.84,33.9c-3.24,22.04-1.01,44.03,1.11,65.96c2.61,27.01,6.53,53.88,16.33,79.34
		c5.68,14.76,12.4,29.2,19.81,43.18c5.69,10.75,14.27,19.53,24.62,26.27c18.96,12.36,37.79,7.57,50.47-11.07
		c9.61-14.13,10.5-29.63,10.95-45.53c0.28-9.72,0.05-19.45,0.05-29.74c2.33-0.35,5.29-0.8,9.1-1.37c0.51,4.37,1.07,8.39,1.42,12.42
		c1.39,16.18,0.13,32.13-4.6,47.72c-6.75,22.23-19.64,38.34-43.59,43.26C146.64,297.59,143.74,297.59,140.85,297.59z"/>
	<path class="st1" d="M16.08,155.46c1.65-11.34,7.78-20.31,15.16-29.03c0.43,0.69,0.89,1.07,0.87,1.43
		c-1.44,36.71,8.2,71.47,18.57,106.11c0.73,2.44,4.15,5.66,0.24,7.48c-3.46,1.61-8.91,3.36-11.38,1.78
		c-5.53-3.53-11.07-7.28-13.59-14.78c-5.06-15.05-8.09-30.28-9.01-46.04c-0.1-1.77-0.56-3.51-0.86-5.27
		C16.08,169.93,16.08,162.7,16.08,155.46z"/>
	<path class="st1" d="M1907.08,176.08c-0.84,7.5-1.17,15.11-2.65,22.49c-2.19,10.87-5.05,21.61-7.92,32.32
		c-1.85,6.91-16.17,13.9-22.08,11.12c-3.18-1.5-4.28-3.19-2.94-7.16c10.57-31.4,18.35-63.42,19.84-96.7
		c0.18-4.08,0.02-8.17,0.02-13.49c7.86,9.31,14.07,18.26,15.73,29.72C1907.08,161.61,1907.08,168.84,1907.08,176.08z"/>
	<path class="st2" d="M728.63,182.58c16.83-33.98,33.12-66.88,49.82-100.62c-8.18,0-15.33,0-22.82,0c0-9.63,0-18.74,0-28.17
		c12.22,0,24.26,0,36.62,0c7.71,15.02,15.64,30.18,23.24,45.51c1.63,3.29,3.52,4.26,7.05,4.25c40.12-0.12,80.25-0.08,120.37-0.08
		c7.24,0,8.87-1.54,9.24-8.67c0.39-7.44-3.18-12.77-9.05-13.14c-3.78-0.23-7.59-0.06-11.38-0.06c-26.02,0-52.04,0-78.54,0
		c0-8.6,0-16.95,0-25.68c1.39-0.09,2.78-0.26,4.17-0.26c28.2-0.02,56.39-0.08,84.59,0.03c9.88,0.04,18.9,3.15,26.52,9.46
		c19.89,16.48,13.62,53.46-10.52,62.36c-3.71,1.37-7.6,2.24-12.04,3.52c11.77,16.47,23.44,32.8,35.72,49.99
		c-9.62,0.48-18.18,1.09-26.74,1.16c-1.37,0.01-3.06-2.19-4.1-3.71c-9.86-14.48-19.72-28.97-29.31-43.63
		c-2.15-3.29-4.45-4.45-8.32-4.34c-10.44,0.28-20.88,0.1-31.85,0.1c0,17.78,0,35.07,0,52.71c-8.73,0-16.94,0-25.65,0
		c0-17.74,0-35.37,0-53.46c-8.13,0-15.79,0-24.37,0c4.86,9.55,9.61,18.9,14.79,29.09c-2.35,0.15-4.19,0.38-6.02,0.38
		c-22.59,0.02-45.19,0.09-67.78-0.06c-3.56-0.02-5.67,0.8-6.84,4.42c-1.16,3.59-3.58,6.8-4.49,10.42c-1.85,7.35-6.23,9.41-13.4,8.61
		C741.69,182.05,735.68,182.58,728.63,182.58z M792.89,107.92c-3.8,8.01-6.97,14.7-10.37,21.86c7.84,0,14.54,0,22,0
		C800.62,122.44,797.09,115.81,792.89,107.92z"/>
	<path class="st2" d="M1237.13,49.35c0,8.95,0,17.36,0,26.36c-2.1,0.14-4.19,0.39-6.28,0.39c-24.77,0.05-49.54,0-74.31,0.16
		c-3.93,0.03-7.91,0.69-11.77,1.51c-6.45,1.37-8.54,4.14-8.58,10.54c-0.04,5.56,2.42,9.32,8.06,10.49
		c5.6,1.16,11.37,1.65,17.09,1.94c14.96,0.75,30.04,0.29,44.86,2.09c14.03,1.71,26.13,8.42,30.73,23.02
		c7.27,23.08-1.75,43.1-25.31,49.65c-11.55,3.21-23.42,4.8-35.59,4.51c-19.15-0.46-38.33-0.32-57.49,0.01
		c-5.22,0.09-6.49-1.62-6.23-6.47c0.38-6.82,0.1-13.67,0.1-21.27c2.41,0,4.32,0,6.23,0c23.5,0,47.01,0.13,70.51-0.08
		c5.37-0.05,10.76-1.08,16.07-2.03c4.99-0.9,7.23-4.5,7.43-9.33c0.2-4.95-0.51-9.87-6.29-11.12c-5.59-1.21-11.35-1.96-17.07-2.14
		c-11.2-0.35-22.45,0.35-33.62-0.32c-13.06-0.79-25.82-3.15-35.78-12.94c-6.21-6.1-9.17-13.37-10.13-22.08
		c-1.19-10.79,1.42-20.11,8.48-28.04c7.15-8.04,16.71-12.45,27.17-13.03c21.26-1.17,42.58-1.34,63.88-1.79
		C1218.44,49.19,1227.6,49.35,1237.13,49.35z"/>
	<path class="st2" d="M261.24,54.59c0,8.94,0,17.35,0,26.33c-2.55,0.14-5.01,0.39-7.46,0.4c-24.22,0.05-48.43-0.01-72.65,0.14
		c-4.11,0.03-8.27,0.68-12.31,1.5c-6.12,1.24-8.16,3.92-8.42,10.11c-0.23,5.52,2.25,9.63,7.67,10.78
		c5.58,1.19,11.36,1.69,17.08,1.99c15.31,0.8,30.76,0.33,45.91,2.26c13.79,1.76,25.65,8.6,30.13,22.99
		c7.26,23.32-1.99,43.03-24.94,49.34c-9.57,2.63-19.81,3.56-29.79,3.82c-21.13,0.56-42.28,0.17-63.43,0.17c-1.94,0-3.88,0-6.12,0
		c0-9.02,0-17.45,0-26.62c1.99-0.11,4.06-0.31,6.13-0.31c23.13-0.02,46.27,0.12,69.4-0.1c5.54-0.05,11.1-1.13,16.61-1.98
		c5.34-0.82,7.64-4.54,7.83-9.55c0.18-4.91-0.55-9.83-6.4-11.04c-5.42-1.12-10.99-1.9-16.52-2.07c-11.2-0.33-22.42,0.16-33.61-0.27
		c-9.76-0.38-19.48-2.05-28.09-6.95c-11.84-6.75-17.97-16.86-18.38-30.94c-0.44-14.98,5.66-25.46,18.42-32.72
		c9.24-5.26,19.41-7,29.65-7.17C208.13,54.3,234.32,54.59,261.24,54.59z"/>
	<path class="st2" d="M1641.59,79.99c0-8.38,0-16.6,0-25.42c2.06,0,3.99,0,5.92,0c28.2,0,56.41,0,84.61,0
		c27.27,0,50.74,17.3,57.69,43.72c5.79,22,1.84,42.89-11.74,61.16c-9.6,12.9-22.77,19.97-39.5,19.95
		c-22.05-0.02-44.1,0.62-66.16,0.97c-1.96,0.03-3.92,0-6.27,0c0-25.23,0-50.07,0-75.36c8.55,0,17.1,0,26.6,0c0,7.96,0,16,0,24.05
		c0,7.92,0,15.84,0,24.33c14.99,0,29.42-0.34,43.82,0.14c7.55,0.25,13.29-2.66,18.48-7.42c5.75-5.28,8.6-11.94,8.78-19.73
		c0.04-1.81-0.02-3.62,0.11-5.42c1.29-18.03-5.27-29.4-21.61-36.63c-2.69-1.19-5.94-1.44-8.95-1.53
		c-29.82-0.87-59.63-1.61-89.45-2.4C1643.23,80.36,1642.55,80.15,1641.59,79.99z"/>
	<path class="st1" d="M1603.89,259.27c2.34-4.93,4.18-8.82,6.47-13.66c1.85,4.52,3.78,8.12,4.79,11.97
		c1.48,5.63,4.48,7.35,10.37,7.26c25.85-0.37,51.71-0.16,77.56-0.16c1.96,0,3.92,0,6.21,0c0,3.79,0,7.14,0,11.41
		c-1.78,0-3.67,0-5.56,0c-23.5,0-47.01,0.15-70.51-0.12c-5.21-0.06-9.13,0.87-11.47,5.82c-0.44,0.93-1.3,1.65-2.42,3.02
		c-3.39-6.2-6.55-11.95-10.18-18.57c-2.65,5.84-5.02,11.06-7.83,17.23c-2.63-7.61-4.96-14.36-7.76-22.48
		c-6.15,11.72-11.76,22.39-17.97,34.23c-2.67-10.41-5.02-19.56-7.73-30.13c-2.43,4.97-4.35,8.89-6.51,13.32
		c-3.07-2.85-5.92-5.5-9.3-8.63c-4.6,6.48-11.37,5.04-17.74,5.05c-27.48,0.03-54.96,0.02-82.45,0.01c-5.99,0-12.72,1.66-15.12-8.36
		c-3.43,7.16-6.08,12.71-9.43,19.72c-2.71-13.21-5.08-24.77-7.78-37.95c-3.93,15.89-7.45,30.16-10.98,44.43
		c-0.39,0.01-0.78,0.02-1.17,0.03c-2.3-9.29-4.6-18.58-7.2-29.11c-2.84,5.5-5.15,9.99-7.74,15c-3.54-5.22-6.67-9.83-9.78-14.41
		c-0.53,0.22-1.06,0.27-1.15,0.5c-3.16,8.37-9.54,9.46-17.66,9.14c-15.16-0.6-30.36-0.09-45.55-0.11
		c-9.02-0.01-13.3-4.29-13.33-13.25c-0.04-11.39-0.06-22.78,0.01-34.17c0.05-7.73,5.53-13.23,13.27-13.3
		c9.94-0.08,19.89-0.07,29.83-0.01c8.38,0.05,14.29,5.87,14.35,14.22c0.08,11.02,0.02,22.03,0.02,33.78
		c6.01-1.34,7.66-6.66,10.94-10.02c3.35-3.44,6.2-7.35,9.87-11.77c1.42,4.55,2.55,8.16,4.14,13.27c3.66-9.34,6.77-17.27,10.24-26.09
		c3.42,9.24,6.48,17.49,9.54,25.75c0.37,0.05,0.74,0.09,1.11,0.14c4.01-19.75,8.01-39.51,12.02-59.26c0.31-0.05,0.62-0.11,0.93-0.16
		c3.2,16.82,6.39,33.65,9.89,52.06c1.83-6.47,3.22-11.37,4.6-16.27c0.38-0.03,0.76-0.06,1.13-0.09c2.6,9.21,5.63,18.32,7.66,27.65
		c1.23,5.67,3.58,7.28,9.36,7.2c26.03-0.36,52.07-0.24,78.11-0.1c7.17,0.04,14.3,0.63,18.43-7.96c1.73,2.81,2.9,4.72,4.61,7.48
		c5.48-16.7,10.72-32.65,15.96-48.6c0.33-0.03,0.65-0.06,0.98-0.09c2.83,15.42,5.66,30.83,8.76,47.75
		c4.52-8.46,8.4-15.74,12.84-24.04C1597.18,245.34,1600.34,251.9,1603.89,259.27z M1318.75,243.51c0,2.71,0,5.42,0,8.13
		c0,0.18-0.01,0.36,0,0.54c0.25,5.21,2.47,7.46,7.78,7.58c5.06,0.11,10.12,0.11,15.18,0c5.24-0.11,7.6-2.44,7.77-7.6
		c0.11-3.25,0.02-6.51,0.02-9.76c0-14.67,0-14.67-14.87-14.67C1318.75,227.74,1318.75,227.74,1318.75,243.51z"/>
	<path class="st1" d="M586.71,253.37c0,7.65,0,14.65,0,21.52c-9.41,2.64-16.68,1.38-17.97-3.42c-4.7,0-9.58-0.4-14.37,0.11
		c-5.25,0.56-8.61-1.2-10.64-5.99c-0.54-1.28-1.55-2.35-2.79-4.18c-3.47,5.1-6.66,9.78-10.19,14.96c-2.57-4.93-4.88-9.37-7.75-14.88
		c-2.56,10.36-4.87,19.68-7.17,29c-0.37,0.07-0.74,0.14-1.11,0.21c-3.56-14.32-7.12-28.64-10.68-42.97c-0.25,0-0.5,0.01-0.74,0.01
		c-2.33,11.47-4.67,22.93-7.33,36c-3.35-6.71-6.11-12.25-9.52-19.08c-2.54,8.76-8.57,8.08-14.61,8.06
		c-28.56-0.12-57.12-0.05-85.68-0.05c-5.4,0-11.09,1-14.67-5.41c-3.41,3.22-6.23,5.89-9.63,9.09c-2.06-4.31-3.93-8.23-6.47-13.56
		c-2.72,10.57-5.06,19.68-7.78,30.25c-6.16-11.73-11.76-22.4-17.97-34.22c-2.74,7.92-5.12,14.76-7.83,22.58
		c-2.76-6.25-5.06-11.46-7.72-17.48c-3.54,6.51-6.69,12.29-9.82,18.04c-0.48-0.1-1.03-0.07-1.11-0.25
		c-3.52-7.82-10.06-8.07-17.51-7.94c-21.87,0.38-43.74,0.14-65.62,0.14c-1.95,0-3.9,0-6.17,0c0-3.8,0-7.15,0-11.41
		c2.04,0,4.11,0,6.18,0c26.57,0,53.15-0.09,79.72,0.1c4.13,0.03,6.18-1.21,7.39-5.15c1.38-4.45,3.46-8.69,5.6-13.91
		c2.32,4.73,4.3,8.77,6.58,13.44c3.43-7.14,6.54-13.62,10.21-21.25c4.35,8.05,8.29,15.35,12.9,23.88
		c3.06-16.68,5.89-32.14,8.72-47.59c0.32-0.04,0.64-0.08,0.96-0.12c5.24,15.95,10.48,31.9,15.98,48.67c1.5-2.42,2.67-4.29,3.77-6.07
		c0.47,0,0.97-0.13,1.08,0.02c4.4,6.17,10.55,6.76,17.6,6.67c26.57-0.34,53.15-0.27,79.72-0.01c4.8,0.05,6.97-1.16,8.09-6.01
		c2.22-9.65,5.18-19.13,8.9-28.9c1.46,4.98,2.93,9.96,4.81,16.39c3.44-18.21,6.61-35,9.79-51.79c0.34-0.01,0.67-0.03,1.01-0.04
		c3.99,19.73,7.98,39.46,11.97,59.19c0.35,0.04,0.69,0.09,1.04,0.13c3.09-8.29,6.18-16.58,9.65-25.9
		c3.45,8.78,6.56,16.69,10.29,26.17c1.54-5.16,2.61-8.78,3.99-13.4c4.59,5.49,9.15,9.91,12.46,15.13c4.23,6.68,9.88,7.31,17,5.94
		c0-14.09,0-28.13,0-42.62c1.9-0.13,3.45-0.33,5-0.33c12.29-0.03,24.58-0.01,36.88-0.01c9.53,0,14.73,4.7,15.67,14.22
		c0.83,8.4-2.83,15.5-7,22.28c-0.73,1.19-3.41,1.63-5.2,1.66C605.44,253.45,596.27,253.37,586.71,253.37z M585.56,237.93
		c7.51,0,14.51,0.15,21.48-0.14c1.24-0.05,2.41-1.98,3.61-3.04c-1.12-1.08-2.21-3.05-3.37-3.1c-7.14-0.29-14.29-0.15-21.72-0.15
		C585.56,233.81,585.56,235.55,585.56,237.93z"/>
	<path class="st2" d="M394.93,82.13c0-10.08,0-19.05,0-28.34c64.99,0,129.76,0,194.94,0c0,42.74,0,85.44,0,128.46
		c-9.88,0-19.74,0-30.12,0c0-33.13,0-66.28,0-100.13C504.61,82.13,450,82.13,394.93,82.13z"/>
	<path class="st2" d="M264.53,118.29c-0.02-36.05,28.31-64.77,63.98-64.79c33.97-0.02,64.63,26.34,64.81,64.29
		c0.18,37.88-30.47,64.83-64.85,64.79C293.02,182.53,264.55,153.87,264.53,118.29z M328.73,156.68
		c20.71,1.88,38.72-18.9,39.05-37.87c0.38-21.94-19.87-39.65-38.58-39.86c-21.02-0.23-39.48,19.16-39.58,38.85
		C289.52,138.82,309.06,158.73,328.73,156.68z"/>
	<path class="st2" d="M1370.05,115.64c0.34,33.93-26.84,64.58-64.46,64.49c-36.53-0.09-64.47-29.01-64.44-64.7
		c0.03-38.42,32.3-65.16,65.74-64.3C1341.97,52.04,1370.1,80.05,1370.05,115.64z M1344.34,115.66
		c1.98-21.09-18.93-38.94-37.72-39.28c-22.79-0.41-39.78,20.45-39.96,38.61c-0.21,21.28,19.44,39.58,39.02,39.6
		C1325.71,154.62,1346.23,135.92,1344.34,115.66z"/>
	<path class="st2" d="M1473.27,53.65c8.95,0,17.05,0,25.89,0c0,2.06,0,3.97,0,5.88c0,21.33-0.3,42.67,0.08,64
		c0.4,21.98-9.74,38.34-27.04,50.2c-36.74,25.2-86.34,6.84-98.29-36.08c-1.71-6.13-2.54-12.67-2.65-19.04
		c-0.34-19.52-0.12-39.05-0.12-58.57c0-1.96,0-3.91,0-6.2c9.13,0,17.88,0,27.35,0c0,1.99,0,3.91,0,5.82
		c0,21.15,0.01,42.31-0.01,63.46c-0.02,17.64,11.63,32.58,29.18,35.64c16.5,2.88,31.34-1.09,42.02-18.73
		c2.2-3.64,3.37-8.46,3.43-12.76c0.33-22.77,0.15-45.56,0.15-68.34C1473.27,57.32,1473.27,55.73,1473.27,53.65z"/>
	<path class="st2" d="M740.6,74.5c-6.34,5.49-12.43,10.77-18.43,15.97c-24.89-15.6-44.01-14.48-58.79,2.54
		c-11.66,13.43-11.43,37.66,0.97,51.29c12.85,14.13,37.26,17.52,54.55,3.66c4.95,6.54,9.89,13.07,14.81,19.57
		c-18.84,17.97-57.66,23.38-85.36-3.45c-26.1-25.28-25.67-68.18,0.66-92.77C675.47,46.58,717.57,47.72,740.6,74.5z"/>
	<path class="st1" d="M1726.94,193.64c3.49,0.43,6.33,0.79,9.42,1.17c0,4.86-0.2,9.67,0.04,14.47c0.73,14.57,0.63,29.29,2.78,43.65
		c1.72,11.46,9.01,20.94,18.02,28.18c11.43,9.2,24.16,8.63,36.59,1.93c14.32-7.72,24.17-20.01,31.88-33.93
		c14.59-26.32,23.98-54.61,28.03-84.32c3.43-25.2,5.37-50.63,7.04-76.02c0.91-13.9-1.42-27.76-5.85-41.09
		c-1.08-3.24-2.48-6.41-4.1-9.41c-7.84-14.51-19.22-18.5-34.56-12.31c-8.47,3.42-15.18,9.17-20.56,16.32
		c-4.43,5.88-8.18,12.28-12.6,19.01c-2.56-2.44-5.35-5.1-8.53-8.14c10.14-16.22,21.35-31.06,39.44-38.89
		c19.07-8.26,34.44-3,44.51,15.13c8.72,15.71,11.65,33.06,12.43,50.61c2.33,52.47-4.92,103.45-26.03,151.92
		c-6.42,14.74-13.48,29.24-24.31,41.42c-9.15,10.29-19.56,19-33.44,21.87c-17.1,3.53-31.48-2.22-42.83-15
		c-11.44-12.9-16.13-28.83-18.3-45.57C1724.29,221.16,1724.48,207.66,1726.94,193.64z"/>
	<path class="st2" d="M1535.18,107.13c0,25.76,0,50.24,0,75.09c-9.49,0-18.59,0-28.1,0c0-41.86,0-83.65,0-126.36
		c5.1,3.82,9.77,7.33,14.45,10.83c20.36,15.27,40.68,30.59,61.12,45.76c3.03,2.25,4.53,4.57,4.37,8.49
		c-0.32,7.69-0.09,15.41-0.09,24.17C1569.49,132.3,1552.86,120.1,1535.18,107.13z"/>
	<path class="st2" d="M498.67,104.21c0,9.85,0,19.21,0,29.2c-25.16,0-50.17,0-75.75,0c0,16.59,0,32.56,0,48.85
		c-9.17,0-17.76,0-26.77,0c0-25.83,0-51.73,0-78.05C430.11,104.21,464.15,104.21,498.67,104.21z"/>
	<path class="st2" d="M1608.9,53.85c7.38,0,14.06,0.21,20.73-0.07c4.35-0.18,5.51,1.57,5.52,5.69c0.1,26.39,0.46,52.78,0.64,79.16
		c0.1,13.9,0.02,27.79,0.02,42.81c-4.05-3.03-7.59-5.59-11.04-8.27c-5.69-4.43-13.49-7.88-16.36-13.72
		c-2.87-5.85-0.9-14.13-0.82-21.34c0.28-26.39,0.65-52.77,1-79.16C1608.61,57.36,1608.78,55.78,1608.9,53.85z"/>
	<path class="st1" d="M748.71,250.75c6.54,7.36,13.07,14.71,20.39,22.95c-7.58,0-14.01,0.15-20.41-0.12
		c-1.33-0.06-2.78-1.46-3.85-2.56c-5.16-5.31-10.02-10.91-15.38-16c-1.99-1.89-5.07-2.65-8.83-4.5c0,8.83,0,15.63,0,22.82
		c-5.59,0-10.74,0-16.31,0c0-19.76,0-39.68,0-60.37c3.21,0,6.56,0,9.92,0c11.37,0,22.74,0.15,34.11-0.09
		c3.43-0.07,5.69,0.97,6.55,4.11c1.63,5.99,3.68,12.01,4.17,18.13C759.52,240.84,755.89,245.14,748.71,250.75z M718.19,236.71
		c7.45,0,14.3,0.18,21.13-0.15c1.41-0.07,2.73-2.06,4.1-3.17c-1.34-1.05-2.64-2.94-4.02-3c-6.99-0.31-14-0.14-21.21-0.14
		C718.19,232.57,718.19,234.3,718.19,236.71z"/>
	<path class="st1" d="M1195.49,273.71c0-20.51,0-40.18,0-60.74c3.93,0,7.81,0,11.68,0c7.23,0,14.48,0.43,21.67-0.08
		c18.15-1.31,32.15,18.81,27.85,35.84c-2.46,9.75-6.03,18.59-15.77,23.34c-1.26,0.61-2.58,1.56-3.88,1.57
		C1223.36,273.75,1209.67,273.71,1195.49,273.71z M1210.43,229.07c0,5.67,0,10.51,0,15.35c0,4.98,0,9.95,0,15.37
		c5.69,0,10.69,0,15.7,0c7.86,0,12.11-2.9,14.15-9.64c2.62-8.63,0.61-15.42-5.91-19.52c-1.18-0.74-2.61-1.47-3.94-1.5
		C1224,228.99,1217.55,229.07,1210.43,229.07z"/>
	<path class="st1" d="M636.78,273.37c0-20.23,0-39.92,0-60.01c17.53,0,34.95,0,52.7,0c0,5.12,0,10.27,0,16.22
		c-11.75,0-23.54,0-35.62,0c0,2.89,0,4.99,0,7.73c7.05,0,13.99,0,21.35,0c0,4.5,0,8.38,0,12.91c-6.81,0-13.77,0-21.17,0
		c0,2.47,0,4.3,0,6.72c11.86,0,23.53,0,35.48,0c0,5.75,0,10.91,0,16.42C672.04,273.37,654.62,273.37,636.78,273.37z"/>
	<path class="st1" d="M852.42,252.46c0,2.55,0,4.26,0,6.56c11.93,0,23.6,0,35.6,0c0,5.74,0,10.91,0,16.87c-8.69,0-17.47,0-26.25,0
		c-8.64,0-17.29,0-26.25,0c0-20.35,0-40.29,0-60.49c17.49,0,34.78,0,52.45,0c0,5.31,0,10.6,0,16.47c-11.84,0-23.52,0-35.53,0
		c0,2.83,0,5.07,0,7.94c7.24,0,14.21,0,21.45,0c0,4.34,0,8.07,0,12.65C866.86,252.46,859.78,252.46,852.42,252.46z"/>
	<path class="st1" d="M1856.09,89.8c0,5.36,0.3,10.24-0.16,15.06c-0.16,1.72-1.84,3.68-3.35,4.84
		c-17.59,13.55-29.52,30.62-32.81,52.92c-2.58,17.52,0.41,34.52,8.64,49.89c4.81,8.99,3.36,15.8-1.79,23.13
		c-11.95-11.16-28.36-45.08-23.58-75.75C1807.4,131.95,1831.13,99.91,1856.09,89.8z"/>
	<path class="st1" d="M96.77,237.06c-2.26-4.92-4.32-8.56-5.55-12.46c-0.54-1.72,0.19-4.19,1.07-5.96
		c7.3-14.76,12.2-30.08,11.8-46.76c-0.61-25.47-12.29-45.23-31.88-60.61c-3.83-3.01-5.75-5.84-5.21-10.66
		c0.38-3.38,0.07-6.84,0.07-11.42c24.81,13.42,41.73,32.62,49.93,58.62C127.4,180.75,116.52,209.43,96.77,237.06z"/>
	<path class="st1" d="M941.15,247.62c4.36,0.92,8.03,1.69,12.2,2.56c0,5.05,0.33,10.09-0.09,15.07c-0.44,5.34-6.45,10.5-12.04,10.58
		c-10.83,0.15-21.67,0.16-32.5,0.01c-6.5-0.09-12.5-5.85-12.64-12.46c-0.26-12.09-0.25-24.2-0.04-36.29
		c0.12-7.01,5.15-11.83,12.15-11.91c11.01-0.14,22.03-0.12,33.05-0.01c7.52,0.08,12.03,4.73,12.22,12.22
		c0.26,10.07,0.25,10.08-11.67,14.59c-0.27-0.43-0.75-0.85-0.79-1.31c-0.98-11.43-1.18-11.63-12.55-11.63
		c-3.61,0-7.22-0.03-10.83,0.02c-4.79,0.06-7.42,2.52-7.5,7.33c-0.11,5.78-0.09,11.56,0,17.33c0.08,4.82,2.69,7.29,7.48,7.35
		c5.06,0.06,10.11,0.1,15.17,0c5.7-0.11,7.85-2.24,8.13-7.8C940.96,251.66,941.03,250.06,941.15,247.62z"/>
	<path class="st1" d="M1120.45,275.88c-5.72,0-10.76,0.21-15.76-0.14c-1.31-0.09-3.28-1.7-3.62-2.97
		c-2.75-10.2-9.38-12.41-19.33-11.84c-15.44,0.89-15.47,0.22-21.55,14.69c-5.96,0-12.03,0-18.8,0c1.99-3.71,3.73-6.97,5.49-10.22
		c8.86-16.36,17.92-32.62,26.46-49.14c1.97-3.8,4.61-3.22,7.55-3.3c3.04-0.08,5.53-0.26,7.46,3.43
		C1098.65,236.03,1109.37,255.45,1120.45,275.88z M1081.32,234.34c-3.04,5.58-5.43,9.98-8.04,14.78c5.47,0,9.82,0,14.88,0
		C1085.9,244.26,1083.92,239.97,1081.32,234.34z"/>
	<path class="st1" d="M1162.94,213.19c4.5,0,8.41,0,12.8,0c0,16.79,0.06,33.36-0.1,49.92c-0.02,1.64-0.93,3.88-2.19,4.77
		c-3.22,2.27-6.77,5.34-10.36,5.57c-10.98,0.72-22.03,0.34-33.06,0.23c-6.99-0.07-12.61-5.3-12.69-12.17
		c-0.18-15.9-0.06-31.79-0.06-48.12c4.71,0,9.26,0,14.42,0c0,12.19-0.01,24.24,0,36.3c0.01,8.27,1.87,10.08,10.25,10.1
		c4.16,0.01,8.32,0.06,12.47-0.02c5.79-0.11,8.15-2.45,8.2-8.31c0.09-11.75,0.05-23.49,0.08-35.24
		C1162.72,215.35,1162.84,214.48,1162.94,213.19z"/>
	<path class="st1" d="M772.5,274.49c0-19.73,0-39.18,0-58.99c17.5,0,34.9,0,52.62,0c0,5.22,0,10.39,0,16.34c-11.71,0-23.48,0-35.6,0
		c0,3,0,5.22,0,8.05c7.3,0,14.25,0,21.45,0c0,4.49,0,8.37,0,12.87c-7.19,0-14.14,0-21.73,0c0,7.54,0,14.49,0,21.73
		C783.44,274.49,778.28,274.49,772.5,274.49z"/>
	<path class="st1" d="M956.93,230.5c0-6.26,0-11.6,0-17.24c20.15,0,40.07,0,60.26,0c0,5.56,0,10.9,0,16.76c-7.58,0-15.08,0-23.18,0
		c0,15.38,0,30.26,0,45.5c-5.73,0-10.88,0-16.66,0c0-14.75,0-29.61,0-45.02C970.33,230.5,963.93,230.5,956.93,230.5z"/>
	<path class="st1" d="M116.24,254.68c3.6,2.28,6.58,4.68,9.96,6.18c5.06,2.26,10.27,4.53,15.66,5.64
		c9.43,1.95,16.12-1.87,20.02-10.54c8.16-18.12,8.89-36.99,5.62-56.26c-0.18-1.06-0.36-2.11-0.65-3.77
		c3.26-0.47,6.37-0.91,10.28-1.47c0.8,6.55,1.78,12.73,2.26,18.95c1.14,14.66,0.95,29.19-3.65,43.43
		c-3.18,9.86-9.5,17.15-18.2,21.96c-4.13,2.28-9.68,3.2-14.46,2.88c-9.81-0.65-18.16-5.66-25.83-11.55
		c-1.19-0.91-2.16-2.92-2.16-4.41C115.12,262.2,115.78,258.68,116.24,254.68z"/>
	<path class="st1" d="M1807.4,256.23c-0.47-0.83-0.33-0.69-0.31-0.54c1.8,14.01,1.63,13.77-10.81,20.81
		c-22.49,12.72-40.05,1.87-48.24-18.36c-5.76-14.23-5.44-29.36-4.29-44.39c0.48-6.27,1.46-12.5,2.28-19.23
		c3.66,0.49,6.8,0.92,9.13,1.23c0,13.57-0.69,26.71,0.28,39.72c0.52,7,3.42,13.98,6.06,20.64c3.39,8.52,10.54,12.74,19.46,10.37
		C1789.83,264.12,1798.22,259.87,1807.4,256.23z"/>
	<path class="st1" d="M1834.34,281.8c-4.86-6.35-3.33-11,1.21-16.86c15.87-20.51,24.12-44.63,30.27-69.48
		c9.82-39.68,13.35-80.09,13.3-120.88c0-2.21,0.39-4.42,0.6-6.63c0.53-0.09,1.06-0.18,1.59-0.26c0.99,2.95,2.84,5.89,2.86,8.84
		c0.37,48.78-3.42,97.1-17.32,144.15c-5.54,18.77-12.91,36.79-24.7,52.67c-1.5,2.03-3.19,3.92-4.87,5.81
		C1836.46,280.08,1835.44,280.83,1834.34,281.8z"/>
	<path class="st1" d="M43.53,67.94c0.18,2.43,0.51,4.87,0.52,7.3c0.14,45.89,4.3,91.27,17.54,135.45
		c6.42,21.42,15.23,41.7,29.59,59.18c3.72,4.53-1.32,7.75-2.85,12.36c-3.71-4.76-7.79-9.28-11.07-14.33
		c-14.39-22.15-21.98-46.97-27.47-72.49c-8.35-38.85-11.3-78.25-10.82-117.92c0.04-3.2,1.66-6.39,2.55-9.58
		C42.2,67.92,42.86,67.93,43.53,67.94z"/>
	<path class="st1" d="M1269.54,212.12c6.08,0,11.79,0,17.78,0c0,20.4,0,40.55,0,61.16c-5.7,0-11.54,0-17.78,0
		C1269.54,253.14,1269.54,232.86,1269.54,212.12z"/>
	<path class="st2" d="M610.06,53.85c0.74-0.12,1.42-0.33,2.09-0.33c8.26-0.02,16.53-0.01,25.19-0.01c0,9.82,0,19.4,0,29.32
		c-9.02,0-17.94,0-27.28,0C610.06,73.23,610.06,63.66,610.06,53.85z"/>
	<path class="st1" d="M1840.17,62.35c-1.22-2.33-2.36-4.48-3.47-6.65c-3.56-6.94-9.85-8.96-16.67-5.26
		c-9.82,5.33-18.05,12.51-24.8,22.35c-2.26-2.63-4.18-4.88-6.41-7.48c8.58-10.45,18.19-19.45,29.32-26.49
		c8.67-5.49,21.4-1.03,26.21,8.13C1846.9,51.78,1845.68,56.66,1840.17,62.35z"/>
	<path class="st1" d="M82.9,62.57c-7.73-9-6.71-16.77,2.21-22.62c6.47-4.24,16.51-4.35,22.42,0.52
		c9.28,7.65,18.17,15.76,27.48,23.89c-2.81,3.37-4.71,5.66-5.75,6.91c-8.76-7.03-16.78-14.21-25.56-20.28
		c-7.21-4.98-13.82-2.42-17.62,5.47C85.16,58.38,84.12,60.25,82.9,62.57z"/>
	<path class="st0" d="M792.89,107.92c4.2,7.89,7.73,14.52,11.63,21.86c-7.46,0-14.16,0-22,0
		C785.92,122.63,789.09,115.93,792.89,107.92z"/>
	<path class="st0" d="M1318.75,243.51c0-15.77,0-15.77,15.9-15.77c14.87,0,14.87,0,14.87,14.67c0,3.25,0.09,6.51-0.02,9.76
		c-0.18,5.15-2.53,7.48-7.77,7.6c-5.06,0.11-10.12,0.11-15.18,0c-5.31-0.12-7.52-2.36-7.78-7.58c-0.01-0.18,0-0.36,0-0.54
		C1318.75,248.94,1318.75,246.23,1318.75,243.51z"/>
	<path class="st0" d="M585.56,237.93c0-2.39,0-4.12,0-6.43c7.43,0,14.58-0.14,21.72,0.15c1.16,0.05,2.25,2.02,3.37,3.1
		c-1.2,1.06-2.36,2.99-3.61,3.04C600.06,238.09,593.07,237.93,585.56,237.93z"/>
	<path class="st0" d="M328.73,156.68c-19.67,2.05-39.21-17.86-39.11-38.88c0.09-19.69,18.56-39.08,39.58-38.85
		c18.71,0.21,38.96,17.92,38.58,39.86C367.45,137.78,349.44,158.56,328.73,156.68z"/>
	<path class="st0" d="M1344.34,115.66c1.89,20.27-18.63,38.96-38.66,38.94c-19.58-0.02-39.23-18.33-39.02-39.6
		c0.18-18.17,17.18-39.02,39.96-38.61C1325.41,76.72,1346.32,94.57,1344.34,115.66z"/>
	<path class="st0" d="M718.19,236.71c0-2.41,0-4.15,0-6.46c7.21,0,14.22-0.17,21.21,0.14c1.38,0.06,2.68,1.95,4.02,3
		c-1.36,1.11-2.68,3.1-4.1,3.17C732.49,236.89,725.64,236.71,718.19,236.71z"/>
	<path class="st0" d="M1210.43,229.07c7.12,0,13.56-0.08,20,0.07c1.33,0.03,2.76,0.76,3.94,1.5c6.52,4.09,8.53,10.88,5.91,19.52
		c-2.05,6.74-6.3,9.64-14.15,9.64c-5.01,0-10.01,0-15.7,0c0-5.41,0-10.39,0-15.37C1210.43,239.58,1210.43,234.74,1210.43,229.07z"/>
	<path class="st0" d="M1081.32,234.34c2.6,5.63,4.58,9.91,6.83,14.78c-5.06,0-9.41,0-14.88,0
		C1075.88,244.33,1078.28,239.93,1081.32,234.34z"/>
</g>
</svg>
