<?xml version="1.0" encoding="utf-8"?>
<!-- Generator: Adobe Illustrator 24.0.1, SVG Export Plug-In . SVG Version: 6.00 Build 0)  -->
<svg version="1.1" id="Camada_1" xmlns="http://www.w3.org/2000/svg" xmlns:xlink="http://www.w3.org/1999/xlink" x="0px" y="0px"
	 viewBox="0 0 800 800" style="enable-background:new 0 0 800 800;" xml:space="preserve">
<style type="text/css">
	.st0{fill:#FFFFFF;}
</style>
<g>
	<path class="st0" d="M4.85,429.31c0-17.92,0-35.84,0-53.77c2.23-15.08,4.05-30.24,6.76-45.23
		c28.1-155.94,151.56-282.53,306.27-313.8c18.62-3.76,37.59-5.81,56.4-8.66c16.77,0,33.53,0,50.3,0
		c12.28,1.66,24.58,3.14,36.83,4.99c159.78,24.13,291.83,149.58,323.96,308.15c3.77,18.58,5.8,37.52,8.64,56.29
		c0,16.77,0,33.53,0,50.3c-2.27,15.92-4.11,31.92-6.89,47.75c-26.9,153.41-152.09,282.05-304.6,312.82
		c-18.57,3.75-37.46,5.94-56.2,8.85c-17.92,0-35.84,0-53.77,0c-15.34-2.27-30.75-4.18-46.02-6.87
		C169.21,762.45,39.36,632.61,11.72,475.34C9.04,460.06,7.12,444.65,4.85,429.31z M756.11,402.92
		c0.1-197.23-158.98-356.77-356.19-357.22C203.14,45.25,42.85,205.1,42.74,401.93c-0.11,197.19,159.01,356.78,356.19,357.22
		C595.74,759.6,756.01,599.75,756.11,402.92z"/>
	<path class="st0" d="M398.2,638.74c-52.03-0.01-104.06,0.02-156.09-0.03c-17.22-0.02-21.17-4.28-21.42-21.66
		c-0.91-65.48,23.95-118.63,78.5-155.28c57.2-38.42,118.79-42.33,180.01-11.05c60.86,31.1,92.81,82.95,96.99,151.44
		c0.35,5.76,0.24,11.56,0.19,17.34c-0.12,14.29-4.94,19.07-19.48,19.2c-13.3,0.12-26.59,0.05-39.89,0.05
		C477.4,638.75,437.8,638.75,398.2,638.74z"/>
	<path class="st0" d="M398.59,401.54c-65.6,0-118.55-52.35-118.62-117.29c-0.07-66.45,52.35-119.67,118.12-119.9
		c65.83-0.23,119,52.9,119.07,118.97C517.22,349,464.53,401.54,398.59,401.54z"/>
</g>
</svg>
